<svg width="385" height="234" viewBox="0 0 385 234" fill="none" xmlns="http://www.w3.org/2000/svg">
<g clip-path="url(#clip0_1_8044)">
<mask id="mask0_1_8044" style="mask-type:luminance" maskUnits="userSpaceOnUse" x="-31" y="0" width="416" height="234">
<path d="M385 0H-31V234H385V0Z" fill="white"/>
</mask>
<g mask="url(#mask0_1_8044)">
<mask id="mask1_1_8044" style="mask-type:luminance" maskUnits="userSpaceOnUse" x="-3" y="8" width="376" height="216">
<path d="M-2.83331 8.4502H372.433V223.384H-2.83331V8.4502Z" fill="white"/>
</mask>
<g mask="url(#mask1_1_8044)">
<path d="M372.306 202.553C371.907 207.931 370.202 213.372 366.681 218.799C365.851 220.08 364.919 221.358 363.882 222.636C363.797 222.74 363.71 222.846 363.624 222.95H7.5212C7.5212 222.95 -8.08746 202.345 -0.634136 177.643C1.3852 170.952 4.26037 164.688 7.2612 158.544C8.76703 155.454 10.3075 152.393 11.7852 149.325C13.0852 146.619 14.3397 143.906 15.4794 141.159C16.0362 139.817 16.5649 138.47 17.061 137.109C19.2515 131.096 20.7704 124.863 20.9762 118.14C21.0152 116.81 21.0044 115.462 20.9372 114.09C20.8094 111.454 20.4692 108.735 19.8842 105.924C19.8539 105.775 19.8235 105.627 19.791 105.478C19.531 104.269 19.2992 103.069 19.102 101.875C17.9905 95.234 17.8259 88.84 18.5192 82.9035C18.6817 81.5275 18.8875 80.1777 19.1389 78.854C23.0909 58.0584 38.1319 43.9401 60.0455 46.601C96.5885 51.0403 125.769 32.4874 146.231 20.2151C147.007 19.7517 147.77 19.2943 148.519 18.8504C155.58 14.6579 161.528 11.4057 166.297 10.4196C172.294 9.18053 177.758 8.56737 182.776 8.46531C183.494 8.45232 184.202 8.4482 184.9 8.4547C224.353 8.78403 235.327 41.2429 261.448 44.8049C325.807 53.5799 345.701 81.6642 343.398 135.532V135.545C343.35 136.7 343.515 137.93 343.855 139.23C344.379 141.226 345.32 143.386 346.55 145.691C347.122 146.768 347.759 147.875 348.446 149.013C349.69 151.073 351.096 153.231 352.591 155.476C353.642 157.056 354.736 158.678 355.848 160.338C357.249 162.433 358.675 164.589 360.075 166.799C360.766 167.893 361.453 169 362.127 170.121C363.394 172.233 364.616 174.389 365.747 176.584C366.575 178.185 367.35 179.808 368.063 181.446C370.349 186.713 371.957 192.156 372.319 197.691C372.425 199.306 372.425 200.928 372.306 202.553Z" fill="#E4F4FB"/>
<path d="M165.144 56.2343H151.735C151.735 58.6978 149.737 60.6954 147.273 60.6954C146.043 60.6954 144.927 60.1949 144.119 59.3889C143.313 58.5808 142.812 57.4649 142.812 56.2343H129.606C138.672 49.4049 144.049 43.1823 146.231 40.4089V20.2156C147.007 19.7519 147.77 19.2948 148.519 18.8506V40.4089C150.701 43.1823 156.079 49.4049 165.144 56.2343Z" fill="#D2EDF8"/>
<path d="M200.322 37.7588H187.883C187.883 40.0446 186.031 41.8993 183.743 41.8993C182.599 41.8993 181.565 41.4356 180.816 40.686C180.068 39.9363 179.604 38.9006 179.604 37.7588H167.352C175.765 31.4213 180.753 25.6471 182.776 23.0775V8.46548C183.493 8.45248 184.202 8.44815 184.9 8.45465V23.0775C186.925 25.6471 191.911 31.4213 200.322 37.7588Z" fill="#D2EDF8"/>
<path d="M40.4459 105.924H67.514V78.854H40.4459V105.924ZM63.4645 101.875H44.4932V82.9035H63.4645V101.875Z" fill="#D2EDF8"/>
<path d="M19.1389 78.854C18.8876 80.1778 18.6817 81.5277 18.5192 82.9035H30.2821V101.875H19.1021C19.2992 103.069 19.5311 104.269 19.7911 105.478C19.8236 105.628 19.8539 105.775 19.8842 105.924H34.3294V78.854H19.1389Z" fill="#D2EDF8"/>
<path d="M40.4459 141.158H67.514V114.09H40.4459V141.158ZM63.4645 137.109H44.4932V118.14H63.4645V137.109Z" fill="#D2EDF8"/>
<path d="M20.9372 114.09C21.0044 115.462 21.0152 116.809 20.9762 118.14H30.282V137.109H17.061C16.5649 138.47 16.0362 139.817 15.4794 141.158H34.3294V114.09H20.9372Z" fill="#D2EDF8"/>
<path d="M40.4459 176.393H67.514V149.325H40.4459V176.393ZM63.4645 172.346H44.4932V153.374H63.4645V172.346Z" fill="#D2EDF8"/>
<path d="M11.7852 149.325C10.3076 152.393 8.76706 155.454 7.26123 158.544V176.393H34.3294V149.325H11.7852ZM30.2821 172.346H11.3107V153.374H30.2821V172.346Z" fill="#D2EDF8"/>
<path d="M310.715 222.636H244.235V135.545H310.715V222.636Z" fill="#D2EDF8"/>
<path d="M304.533 155.476H250.416V139.229H304.533V155.476Z" fill="white"/>
<path d="M294.708 149.013H260.241V145.692H294.708V149.013Z" fill="#D2EDF8"/>
<path d="M304.533 176.584H250.416V160.338H304.533V176.584Z" fill="white"/>
<path d="M294.708 170.12H260.241V166.8H294.708V170.12Z" fill="#D2EDF8"/>
<path d="M304.533 197.691H250.416V181.445H304.533V197.691Z" fill="white"/>
<path d="M294.708 191.23H260.241V187.909H294.708V191.23Z" fill="#D2EDF8"/>
<path d="M304.533 218.8H250.416V202.554H304.533V218.8Z" fill="white"/>
<path d="M294.708 212.338H260.241V209.017H294.708V212.338Z" fill="#D2EDF8"/>
<path d="M372.306 202.553C371.907 207.931 370.202 213.371 366.681 218.799C365.851 220.079 364.919 221.358 363.882 222.636H318.111V135.544H343.398C343.35 136.699 343.515 137.93 343.855 139.23C344.379 141.225 345.32 143.386 346.55 145.691C347.122 146.768 347.759 147.875 348.446 149.013C349.69 151.073 351.096 153.231 352.591 155.476C353.642 157.055 354.736 158.678 355.848 160.338C357.249 162.433 358.675 164.589 360.075 166.799C360.766 167.893 361.453 169 362.127 170.12C363.394 172.233 364.616 174.389 365.747 176.583C366.575 178.184 367.35 179.807 368.063 181.445C370.349 186.713 371.957 192.155 372.319 197.691C372.425 199.305 372.425 200.928 372.306 202.553Z" fill="#D2EDF8"/>
<path d="M352.591 155.476H324.29V139.23H343.855C344.379 141.226 345.32 143.386 346.55 145.691C347.122 146.768 347.759 147.875 348.446 149.013C349.69 151.073 351.096 153.231 352.591 155.476Z" fill="white"/>
<path d="M348.446 149.013H334.118V145.691H346.55C347.122 146.768 347.759 147.875 348.446 149.013Z" fill="#D2EDF8"/>
<path d="M365.747 176.584H324.29V160.338H355.848C357.249 162.433 358.675 164.589 360.074 166.799C360.766 167.893 361.453 169 362.126 170.12C363.394 172.233 364.616 174.389 365.747 176.584Z" fill="white"/>
<path d="M362.127 170.12H334.118V166.799H360.075C360.766 167.893 361.453 169 362.127 170.12Z" fill="#D2EDF8"/>
<path d="M372.319 197.691H324.29V181.446H368.063C370.349 186.713 371.957 192.156 372.319 197.691Z" fill="white"/>
<path d="M368.584 191.23H334.117V187.909H368.584V191.23Z" fill="#D2EDF8"/>
<path d="M372.306 202.553C371.907 207.931 370.202 213.372 366.681 218.799H324.29V202.553H372.306Z" fill="white"/>
<path d="M368.584 212.338H334.117V209.017H368.584V212.338Z" fill="#D2EDF8"/>
<path d="M292.729 76.7291C292.729 65.1211 302.14 55.7104 313.749 55.7104C325.358 55.7104 334.769 65.1211 334.769 76.7291C334.769 88.3381 325.358 97.749 313.749 97.749C302.14 97.749 292.729 88.3381 292.729 76.7291Z" fill="#D2EDF8"/>
<path d="M295.115 76.7291C295.115 66.4385 303.459 58.0962 313.749 58.0962C324.041 58.0962 332.382 66.4385 332.382 76.7291C332.382 87.0216 324.041 95.3642 313.749 95.3642C303.459 95.3642 295.115 87.0216 295.115 76.7291Z" fill="white"/>
<path d="M314.132 59.4727H313.366V62.6724H314.132V59.4727Z" fill="#D2EDF8"/>
<path d="M322.71 61.977L322.046 61.5938L320.942 63.503L321.607 63.8874L322.71 61.977Z" fill="#D2EDF8"/>
<path d="M328.885 68.4329L328.502 67.769L326.592 68.8714L326.975 69.5366L328.885 68.4329Z" fill="#D2EDF8"/>
<path d="M327.807 77.1136H331.006V76.3462H327.807V77.1136Z" fill="#D2EDF8"/>
<path d="M326.593 84.5866L328.502 85.6892L328.885 85.0251L326.976 83.9233L326.593 84.5866Z" fill="#D2EDF8"/>
<path d="M320.942 89.9564L322.046 91.8668L322.709 91.4824L321.607 89.5723L320.942 89.9564Z" fill="#D2EDF8"/>
<path d="M313.366 93.9857H314.132V90.7188H313.366V93.9857Z" fill="#D2EDF8"/>
<path d="M304.789 91.4824L305.453 91.8668L306.557 89.9564L305.892 89.5723L304.789 91.4824Z" fill="#D2EDF8"/>
<path d="M298.613 85.0251L298.997 85.6892L300.907 84.5868L300.523 83.9238L298.613 85.0251Z" fill="#D2EDF8"/>
<path d="M299.76 76.3457H296.493V77.1131H299.76V76.3457Z" fill="#D2EDF8"/>
<path d="M298.613 68.4329L300.523 69.5366L300.907 68.8714L298.997 67.769L298.613 68.4329Z" fill="#D2EDF8"/>
<path d="M304.789 61.977L305.892 63.8874L306.557 63.503L305.453 61.5938L304.789 61.977Z" fill="#D2EDF8"/>
<path d="M314.879 74.7276C314.537 74.5562 314.157 74.4507 313.749 74.4507C312.35 74.4507 311.215 75.5852 311.215 76.9846C311.215 78.3853 312.35 79.5203 313.749 79.5203C314.167 79.5203 314.554 79.4089 314.901 79.2304L322.682 85.0342L323.207 84.3289L315.626 78.6755C316.03 78.225 316.284 77.637 316.284 76.9846C316.284 76.4952 316.137 76.0428 315.897 75.6547L314.879 74.7276Z" fill="#D2EDF8"/>
<path d="M307.593 90.6L313.231 79.4306C313.61 79.4864 314.004 79.4678 314.391 79.3404C315.72 78.903 316.443 77.4706 316.006 76.1413C315.568 74.8108 314.135 74.0875 312.806 74.525C312.41 74.6554 312.076 74.8823 311.802 75.1605L311.288 75.9139C311.045 76.4682 310.987 77.1061 311.191 77.7258C311.344 78.1907 311.625 78.5746 311.974 78.8683L306.365 89.9806L307.593 90.6Z" fill="#D2EDF8"/>
<path d="M312.405 76.9846C312.405 76.2432 313.008 75.6426 313.749 75.6426C314.491 75.6426 315.093 76.2432 315.093 76.9846C315.093 77.7271 314.491 78.3279 313.749 78.3279C313.008 78.3279 312.405 77.7271 312.405 76.9846Z" fill="white"/>
<path d="M173.603 146.901L172.468 156.353L198.104 159.447L164.913 186.1L108.435 150.427L13.5604 223.048L29.0028 223.301L108.919 162.001L165.583 197.786L203.119 167.642L199.248 191.874L208.461 194.331L217.121 152.139L173.603 146.901Z" fill="white"/>
<path d="M173.603 148.791L172.468 158.245L198.104 161.339L164.913 187.991L108.435 152.319L15.1225 222.985L30.565 223.237L108.919 163.891L165.583 199.678L203.119 169.533L199.248 193.766L208.461 196.223L217.121 154.03L173.603 148.791Z" fill="#D2EDF8"/>
</g>
<mask id="mask2_1_8044" style="mask-type:luminance" maskUnits="userSpaceOnUse" x="138" y="63" width="194" height="168">
<path d="M138.867 63.1826H331.917V230.666H138.867V63.1826Z" fill="white"/>
</mask>
<g mask="url(#mask2_1_8044)">
<path d="M287.692 222.088C287.692 223.655 286.422 224.925 284.856 224.925C283.288 224.925 282.018 223.655 282.018 222.088C282.018 220.521 283.288 219.251 284.856 219.251C286.422 219.251 287.692 220.521 287.692 222.088Z" fill="#2F97BF"/>
<path d="M300.196 222.088C300.196 223.655 298.925 224.925 297.359 224.925C295.793 224.925 294.522 223.655 294.522 222.088C294.522 220.521 295.793 219.251 297.359 219.251C298.925 219.251 300.196 220.521 300.196 222.088Z" fill="#2F97BF"/>
<path d="M312.699 222.088C312.699 223.655 311.429 224.925 309.863 224.925C308.295 224.925 307.025 223.655 307.025 222.088C307.025 220.521 308.295 219.251 309.863 219.251C311.429 219.251 312.699 220.521 312.699 222.088Z" fill="#2F97BF"/>
<path d="M300.511 220.564H294.205V151.854H300.511V220.564Z" fill="#2F97BF"/>
<path d="M302.952 183.48H291.766V172.605H302.952V183.48Z" fill="#386A7E"/>
<path d="M301.575 187.684H293.143V176.81H301.575V187.684Z" fill="#386A7E"/>
<path d="M314.308 220.197H280.41C280.41 218.108 282.103 216.414 284.192 216.414H310.526C312.615 216.414 314.308 218.108 314.308 220.197Z" fill="#31505D"/>
<path d="M328.815 122.406L328.394 124.886L320.605 172.582H286.188L293.638 126.826C294.068 124.276 296.287 122.406 298.868 122.406H328.815Z" fill="#37A7D4"/>
<path d="M328.394 124.886L320.605 172.582H288.108L295.138 129.296C295.568 126.746 297.787 124.886 300.368 124.886H328.394Z" fill="#2F97BF"/>
<path d="M323.974 173.55L317.659 172.584L325.407 125.075C325.672 123.534 327.008 122.406 328.572 122.406C330.56 122.406 332.07 124.197 331.735 126.158L323.974 173.55Z" fill="#386A7E"/>
<path d="M262.83 177.05H302.956C304.555 177.05 305.85 175.753 305.85 174.156C305.85 172.557 304.555 171.26 302.956 171.26H262.83C261.232 171.26 259.935 172.557 259.935 174.156C259.935 175.753 261.232 177.05 262.83 177.05Z" fill="#2F97BF"/>
<path d="M298.187 177.05H321.666C323.266 177.05 324.561 175.753 324.561 174.156C324.561 172.557 323.266 171.26 321.666 171.26H298.187C296.588 171.26 295.292 172.557 295.292 174.156C295.292 175.753 296.588 177.05 298.187 177.05Z" fill="#386A7E"/>
<path d="M320.7 132.406H298.702C298.265 132.406 297.91 132.051 297.91 131.615C297.91 131.178 298.265 130.822 298.702 130.822H320.7C321.139 130.822 321.493 131.178 321.493 131.615C321.493 132.051 321.139 132.406 320.7 132.406Z" fill="#386A7E"/>
<path d="M318.501 142.656H296.502C296.066 142.656 295.711 142.301 295.711 141.864C295.711 141.426 296.066 141.071 296.502 141.071H318.501C318.937 141.071 319.292 141.426 319.292 141.864C319.292 142.301 318.937 142.656 318.501 142.656Z" fill="#386A7E"/>
<path d="M316.301 152.904H294.303C293.865 152.904 293.51 152.55 293.51 152.113C293.51 151.676 293.865 151.322 294.303 151.322H316.301C316.738 151.322 317.092 151.676 317.092 152.113C317.092 152.55 316.738 152.904 316.301 152.904Z" fill="#386A7E"/>
<path d="M249.849 115.322L246.97 136.906C246.891 137.499 246.346 137.916 245.753 137.837C245.16 137.758 244.743 137.212 244.822 136.62L247.701 115.036C247.781 114.443 248.326 114.026 248.919 114.105C249.511 114.184 249.928 114.73 249.849 115.322Z" fill="#0C3140"/>
<path d="M238.021 90.3606L249.699 113.578C250.02 114.215 249.831 114.959 249.278 115.237C248.725 115.515 248.015 115.223 247.695 114.586L236.016 91.3689C235.696 90.7315 235.884 89.9879 236.438 89.7097C236.991 89.4314 237.7 89.7231 238.021 90.3606Z" fill="#0C3140"/>
<path d="M251.03 114.672C251.257 113.541 250.523 112.44 249.392 112.213C248.261 111.986 247.16 112.719 246.933 113.85C246.706 114.982 247.439 116.082 248.57 116.309C249.701 116.536 250.803 115.804 251.03 114.672Z" fill="#37A7D4"/>
<path d="M250.154 114.497C250.284 113.848 249.865 113.218 249.216 113.088C248.568 112.958 247.937 113.378 247.807 114.026C247.677 114.674 248.097 115.306 248.745 115.436C249.394 115.566 250.024 115.145 250.154 114.497Z" fill="#2F97BF"/>
<path d="M235.47 90.8465L224.722 89.0793C224.427 89.0308 224.269 88.4953 224.37 87.8843C224.47 87.2733 224.792 86.8166 225.087 86.8651L235.834 88.6323C236.129 88.6808 236.287 89.2163 236.186 89.8273C236.086 90.4383 235.765 90.895 235.47 90.8465Z" fill="#0C3140"/>
<path d="M237.542 91.3903C238.402 90.6225 238.477 89.3015 237.708 88.4409C236.939 87.5796 235.618 87.506 234.758 88.2738C233.898 89.0424 233.823 90.3632 234.592 91.2245C235.361 92.0851 236.682 92.1589 237.542 91.3903Z" fill="#37A7D4"/>
<path d="M236.948 90.7247C237.441 90.2843 237.483 89.5269 237.043 89.0347C236.603 88.5415 235.846 88.498 235.353 88.9384C234.859 89.3795 234.817 90.137 235.257 90.6302C235.697 91.1224 236.454 91.1657 236.948 90.7247Z" fill="#2F97BF"/>
<path d="M259.605 140.862H230.015C230.015 138.17 232.199 135.984 234.893 135.984H254.727C257.422 135.984 259.605 138.17 259.605 140.862Z" fill="#2F97BF"/>
<path d="M219.313 90.329L220.981 83.2404L223.925 83.9335C225.883 84.3943 227.096 86.3544 226.636 88.3115C226.174 90.2684 224.214 91.4827 222.257 91.0214L219.313 90.329Z" fill="#0C3140"/>
<path d="M212.531 76.6625L208.822 92.452L208.859 92.4628L209.12 92.5268L215.372 93.992C217.398 94.4651 219.429 94.1403 221.123 93.2145C222.657 92.3758 223.913 91.0479 224.648 89.3878C224.722 89.2226 224.785 89.0541 224.852 88.874C224.958 88.5776 225.053 88.2788 225.126 87.96C226.151 83.6006 223.445 79.2343 219.094 78.2053L212.531 76.6625Z" fill="#2F97BF"/>
<path d="M212.478 79.8181C212.552 79.1528 212.642 78.4892 212.778 77.8308L218.956 79.2893C222.915 80.2228 225.514 83.9038 225.176 87.8354C225.109 88.0169 225.047 88.1859 224.972 88.3503C224.622 85.011 222.209 82.1065 218.763 81.296L212.478 79.8181Z" fill="#37A7D4"/>
<path d="M208.82 92.4492C207.585 92.1596 207.413 88.3899 208.438 84.0293C209.464 79.6702 211.299 76.3727 212.534 76.6624C213.436 76.8751 213.769 78.9408 213.486 81.7331C213.382 82.7731 213.191 83.9091 212.915 85.082C212.639 86.2573 212.303 87.3587 211.933 88.3352C210.94 90.961 209.722 92.6618 208.82 92.4492Z" fill="#0C3140"/>
<path d="M211.933 88.3352C210.222 87.8285 209.195 86.0598 209.608 84.3054C210.021 82.5488 211.729 81.4253 213.486 81.7328C213.383 82.7729 213.191 83.9089 212.915 85.082C212.639 86.2572 212.304 87.3585 211.933 88.3352Z" fill="#00B6FF"/>
<path d="M148.984 224.9H144.937V144.409H148.984V224.9Z" fill="#37A7D4"/>
<path d="M143.83 224.9H144.937V144.409H143.83V224.9Z" fill="#82D2F1"/>
<path d="M183.066 224.9H179.019V144.409H183.066V224.9Z" fill="#37A7D4"/>
<path d="M177.911 224.9H179.019V144.409H177.911V224.9Z" fill="#82D2F1"/>
<path d="M231.841 224.9H227.793V144.409H231.841V224.9Z" fill="#386A7E"/>
<path d="M226.686 224.9H227.793V144.409H226.686V224.9Z" fill="#37A7D4"/>
<path d="M272.067 224.9H268.02V144.409H272.067V224.9Z" fill="#386A7E"/>
<path d="M266.911 224.9H268.02V144.409H266.911V224.9Z" fill="#37A7D4"/>
<path d="M274.876 145.201H138.925V140.326H274.876V145.201Z" fill="#37A7D4"/>
<path d="M274.876 145.201H222.293V140.326H274.876V145.201Z" fill="#2F97BF"/>
<path d="M177.088 140.327H198.831C201.186 140.327 203.103 138.409 203.103 136.053C203.103 133.696 201.186 131.779 198.831 131.779H177.088C176.732 131.779 176.446 132.067 176.446 132.422V139.685C176.446 140.039 176.732 140.327 177.088 140.327Z" fill="#00B6FF"/>
<path d="M159.762 139.685H181.505C183.51 139.685 185.137 138.058 185.137 136.053C185.137 134.047 183.51 132.422 181.505 132.422H159.762V139.685Z" fill="white"/>
<path d="M159.762 140.327H181.505C183.862 140.327 185.779 138.409 185.779 136.053C185.779 133.696 183.862 131.779 181.505 131.779H159.762C159.408 131.779 159.119 132.067 159.119 132.422C159.119 132.777 159.408 133.064 159.762 133.064H181.505C183.153 133.064 184.494 134.405 184.494 136.053C184.494 137.701 183.153 139.041 181.505 139.041H159.762C159.408 139.041 159.119 139.329 159.119 139.685C159.119 140.039 159.408 140.327 159.762 140.327Z" fill="#23C0FF"/>
<path d="M177.73 123.232H199.473C201.829 123.232 203.747 121.315 203.747 118.958C203.747 116.6 201.829 114.683 199.473 114.683H177.73C177.374 114.683 177.087 114.971 177.087 115.325V122.589C177.087 122.944 177.374 123.232 177.73 123.232Z" fill="#00B6FF"/>
<path d="M160.405 122.588H182.148C184.152 122.588 185.779 120.963 185.779 118.958C185.779 116.953 184.152 115.325 182.148 115.325H160.405V122.588Z" fill="white"/>
<path d="M160.405 123.232H182.148C184.505 123.232 186.422 121.315 186.422 118.958C186.422 116.6 184.505 114.683 182.148 114.683H160.405C160.05 114.683 159.762 114.971 159.762 115.325C159.762 115.682 160.05 115.968 160.405 115.968H182.148C183.796 115.968 185.137 117.31 185.137 118.958C185.137 120.605 183.796 121.947 182.148 121.947H160.405C160.05 121.947 159.762 122.233 159.762 122.589C159.762 122.944 160.05 123.232 160.405 123.232Z" fill="#66D3FF"/>
<path d="M171.151 131.779H192.893C195.25 131.779 197.168 129.862 197.168 127.505C197.168 125.149 195.25 123.232 192.893 123.232H171.151C170.796 123.232 170.508 123.519 170.508 123.874V131.137C170.508 131.492 170.796 131.779 171.151 131.779Z" fill="#31505D"/>
<path d="M153.826 131.137H175.568C177.574 131.137 179.199 129.512 179.199 127.505C179.199 125.5 177.574 123.875 175.568 123.875H153.826V131.137Z" fill="white"/>
<path d="M153.826 131.779H175.568C177.924 131.779 179.841 129.862 179.841 127.505C179.841 125.149 177.924 123.232 175.568 123.232H153.826C153.471 123.232 153.183 123.519 153.183 123.874C153.183 124.229 153.471 124.517 153.826 124.517H175.568C177.217 124.517 178.556 125.858 178.556 127.505C178.556 129.154 177.217 130.494 175.568 130.494H153.826C153.471 130.494 153.183 130.782 153.183 131.137C153.183 131.492 153.471 131.779 153.826 131.779Z" fill="#2F97BF"/>
</g>
<mask id="mask3_1_8044" style="mask-type:luminance" maskUnits="userSpaceOnUse" x="36" y="35" width="110" height="190">
<path d="M36.8921 35.1523H145.009V224.302H36.8921V35.1523Z" fill="white"/>
</mask>
<g mask="url(#mask3_1_8044)">
<path d="M92.6034 208.321L99.9464 208.697C99.476 214.713 100.917 216.141 101.711 218.055C103.103 221.408 97.2338 221.522 97.2338 221.522L93.2254 221.305C93.2254 221.305 89.7681 220.857 92.3226 216.358C92.9466 215.257 92.6034 208.321 92.6034 208.321Z" fill="#BBE9FB"/>
<path d="M111.954 222.911H91.9384C91.9384 222.911 89.5312 220.821 92.0857 216.32C93.3251 217.027 96.3281 217.768 100.115 215.796C98.6139 214.914 97.7776 213.831 97.8967 213.545C98.1047 213.047 100.228 211.422 100.646 213.213C101.062 215.005 104.481 217.035 104.481 217.035C105.851 217.594 107.341 218.01 108.624 218.127C112.238 218.459 111.954 222.911 111.954 222.911Z" fill="#0C3140"/>
<path d="M92.6253 110.292C96.1564 121.861 96.7531 143.893 98.4523 163.033C99.8048 178.265 101.045 201.14 102.081 210.625C102.081 210.625 93.9383 212.815 90.3327 211.351C90.3327 211.351 81.7521 172.212 79.9099 166.887C78.0678 161.561 70.9706 127.196 73.8774 112.139C76.7833 97.0822 91.2395 105.749 92.6253 110.292Z" fill="#F4FCFF"/>
<path d="M75.2079 127.004C75.2079 127.004 81.3062 148.871 83.6917 164.047C84.6476 170.134 90.3327 211.351 90.3327 211.351C90.3327 211.351 84.4432 184.359 82.5588 177.094C79.9099 166.887 72.4744 140.129 72.4744 140.129L75.2079 127.004Z" fill="#D2EDF8"/>
<path d="M67.998 208.321L60.6537 208.698C61.1243 214.713 60.1114 215.997 60.0392 216.394C59.3899 219.964 60.978 220.619 60.978 220.619L64.553 220.764C64.553 220.764 70.8632 220.858 68.3089 216.358C67.6839 215.258 67.998 208.321 67.998 208.321Z" fill="#BBE9FB"/>
<path d="M68.6619 222.911H48.6462C48.6462 222.911 48.3624 218.459 51.9764 218.127C53.2591 218.01 54.7476 217.594 56.1169 217.035C56.1169 217.035 59.5381 215.005 59.9562 213.213C60.3722 211.422 62.4956 213.047 62.7036 213.545C62.8227 213.831 61.9886 214.914 60.4871 215.798C64.2766 217.766 67.2752 217.027 68.5167 216.32C71.0712 220.821 68.6619 222.911 68.6619 222.911Z" fill="#0C3140"/>
<path d="M58.3412 211.413C58.3412 211.413 66.6971 212.543 70.087 210.633C70.087 210.633 72.3431 169.574 73.493 164.059C74.6412 158.543 78.5715 124.701 73.7781 110.139C68.973 95.5667 55.7372 106.003 54.9447 110.694C54.6131 112.627 54.4143 115.074 54.3059 117.876C53.7565 132.263 54.713 156.075 55.8046 168.83C56.102 172.332 56.3858 175.959 56.6467 179.588C57.5459 191.802 58.2091 204.053 58.3412 211.413Z" fill="#F4FCFF"/>
<path d="M55.8048 168.83C56.102 172.332 56.386 175.96 56.6469 179.588C56.568 177.069 56.546 174.535 56.8078 172.017C57.2023 168.37 57.7447 164.726 57.7749 161.057C57.8073 157.591 57.3878 154.141 57.0481 150.7C56.4057 144.412 57.5763 138.306 58.9897 132.128C60.3691 126.133 62.6025 120.392 64.8481 114.682C64.6051 112.965 60.9997 113.598 59.8827 113.644C59.059 113.686 57.9985 113.57 57.2349 113.833C56.0051 114.261 55.4377 115.314 54.9 116.492C54.6885 116.936 54.4924 117.4 54.3062 117.876C53.7567 132.263 54.7132 156.075 55.8048 168.83Z" fill="#D2EDF8"/>
<path d="M82.9323 79.7343C84.1505 84.817 96.0207 102.178 98.1832 105.483C100.79 109.464 108.856 107.648 108.225 103.335C107.664 99.5186 95.6539 77.1975 93.7218 75.0051C90.2316 71.0493 81.4067 73.3739 82.9323 79.7343Z" fill="#BBE9FB"/>
<path d="M87.8952 92.3205C84.039 86.3354 81.6653 78.5601 80.9804 75.7738C79.3524 69.1533 87.4491 65.7853 91.0264 69.7464C91.9206 70.7358 98.4053 77.2507 101.474 83.6419C98.3783 88.6346 88.9632 92.2073 87.8952 92.3205Z" fill="#00B6FF"/>
<path d="M102.934 108.568C107.956 108.719 125.707 103.434 129.079 102.5C133.142 101.376 133.656 94.7818 129.369 95.4683C125.233 96.1306 101.458 98.4702 99.1837 99.4634C95.0781 101.258 96.6497 108.381 102.934 108.568Z" fill="#BBE9FB"/>
<path d="M81.7413 67.1388C81.7413 67.1388 86.0887 66.6109 88.4741 68.8586C90.8576 71.1054 95.0889 81.1654 94.1002 92.9614C93.1095 104.758 97.6033 125.094 97.6033 125.094C97.6033 125.094 77.5903 130.43 52.2276 126.019C52.2276 126.019 52.5963 82.7853 58.1601 70.9719C59.9274 67.2199 68.8018 66.902 70.1433 66.7379C71.4836 66.5725 81.7413 67.1388 81.7413 67.1388Z" fill="#00B6FF"/>
<path d="M80.4738 62.0339C80.4738 62.0339 79.9166 66.119 81.2138 66.612C82.5109 67.1027 84.2229 67.2246 84.2229 67.2246C84.2229 67.2246 77.5961 77.5713 69.2678 66.8162C69.2678 66.8162 71.6389 66.7616 72.3405 65.7804C73.0401 64.7982 73.328 60.0476 72.854 56.9362L80.4738 62.0339Z" fill="#BBE9FB"/>
<path d="M72.3407 65.7802C73.0403 64.7981 73.3282 60.0476 72.854 56.9362L77.198 59.8411C76.3869 60.6213 75.187 62.7668 75.2325 62.8968C74.2011 65.0117 73.6774 67.9522 75.891 69.4743C77.5901 70.6448 79.7889 70.5067 81.8036 69.8369C79.1464 71.9698 74.5507 73.6389 69.2678 66.8162C69.2678 66.8162 71.6391 66.7614 72.3407 65.7802Z" fill="#90C5DA"/>
<path d="M69.2678 66.8166C69.2678 66.8166 71.9929 71.2632 77.4188 71.6871L73.5721 75.8098C73.5721 75.8098 68.6585 71.9678 67.7047 66.812L69.2678 66.8166Z" fill="white"/>
<path d="M84.2231 67.225C84.2231 67.225 82.4791 70.8971 77.0949 71.6984L81.2206 75.543C81.2206 75.543 85.6206 72.6716 86.2138 67.4618L84.2231 67.225Z" fill="white"/>
<path d="M77.0947 71.6983L73.5719 75.8098L75.9352 79.7751L79.6108 79.6468L81.2204 75.5427L77.0947 71.6983Z" fill="#386A7E"/>
<path d="M75.9351 79.775L74.2613 95.5502L79.4492 100.776L83.4545 95.3667L79.611 79.6466L75.9351 79.775Z" fill="#31505D"/>
<path d="M52.0219 75.8918C48.7451 79.9622 42.2619 99.9709 40.9701 103.703C39.411 108.2 44.0806 112.403 47.6632 109.918C50.716 107.803 61.8068 84.4086 62.36 81.5393C63.3578 76.3593 56.1219 70.7965 52.0219 75.8918Z" fill="#BBE9FB"/>
<path d="M45.7515 84.9748C49.0215 78.6504 54.5854 72.7215 56.6601 70.7411C61.5918 66.0337 68.543 71.3802 66.8886 76.4541C66.4753 77.7227 64.217 84.7284 60.2008 90.5715C54.3289 90.3729 46.3807 85.845 45.7515 84.9748Z" fill="#00B6FF"/>
<path d="M46.7708 110.802C51.7954 110.76 69.3299 104.796 72.6623 103.733C76.6792 102.453 76.9397 95.8445 72.6829 96.6952C68.5752 97.5157 44.9084 100.768 42.6738 101.849C38.6398 103.8 40.4846 110.857 46.7708 110.802Z" fill="#BBE9FB"/>
<path d="M84.4157 90.8562C82.4976 90.9301 80.6481 90.9586 82.0795 90.7844C83.9105 90.5621 84.5046 88.3779 82.6863 88.5985C80.4065 88.8756 77.8077 88.9551 75.6511 89.877C73.3179 90.8757 71.2031 96.4247 69.3851 97.9779C68.651 98.6039 71.8363 101.877 72.6191 101.683C75.2269 101.038 76.7609 98.2488 77.1529 98.1408C78.3511 98.1093 79.0017 98.2445 80.1261 98.3357C81.5635 98.4538 82.8651 96.3967 81.4379 96.2809C80.531 96.206 80.6781 95.8059 81.97 95.8627C83.6212 95.9334 84.8362 93.7369 83.1957 93.666C82.5008 93.6363 82.2527 93.416 83.184 93.3799C85.0752 93.3068 86.2941 90.7838 84.4157 90.8562Z" fill="#BBE9FB"/>
<path d="M139.779 101.911L98.627 109.717L98.2148 107.545L139.367 99.7387L139.779 101.911Z" fill="#386A7E"/>
<path d="M98.6269 109.717L79.6844 113.31L79.4525 112.088C79.3529 111.563 79.6982 111.057 80.2225 110.957L98.2148 107.544L98.6269 109.717Z" fill="#31505D"/>
<path d="M138.208 99.9582L97.2192 107.733L97.8277 81.4732C97.8468 80.7068 98.3627 80.0675 99.0734 79.9327L135.987 72.9304C137.453 72.6524 138.813 73.8936 138.775 75.4744L138.208 99.9582Z" fill="#386A7E"/>
<path d="M139.205 99.7693L98.2148 107.545L98.8243 81.2845C98.8424 80.5183 99.3583 79.879 100.07 79.744L137.761 72.5943C138.828 72.392 139.818 73.2957 139.792 74.4464L139.205 99.7693Z" fill="#31505D"/>
<g opacity="0.2">
<path d="M118.087 76.3262L134.656 100.632L129.376 101.634L112.375 77.4097L118.087 76.3262Z" fill="#EFFAFF"/>
</g>
<g opacity="0.3">
<path d="M109.459 77.9628L126.028 102.269L123.972 102.659L106.972 78.4346L109.459 77.9628Z" fill="#EFFAFF"/>
</g>
<path d="M126.745 105.786C126.809 105.74 126.841 105.661 126.852 105.576C127.092 105.843 127.383 106.096 127.72 106.078C128.154 106.053 128.388 105.621 128.571 105.296C128.58 105.282 128.582 105.265 128.587 105.248C129.034 105.898 129.639 106.419 130.339 106.212C131.003 106.013 131.131 105.397 131.059 104.708C131.241 104.931 131.439 105.131 131.646 105.292C132.472 105.93 133.28 105.066 133.527 104.277C133.568 104.147 133.531 104.035 133.466 103.967C133.465 103.939 133.465 103.911 133.457 103.884C133.253 103.162 132.981 102.474 132.612 101.821C132.357 101.372 132.025 100.685 131.543 100.421C130.685 99.9518 130.328 101.04 130.201 101.784C129.951 101.069 129.529 100.469 128.667 100.901C128.079 101.198 127.794 101.691 127.7 102.239C127.514 101.921 127.288 101.643 126.996 101.463C126.252 101.006 125.752 101.934 125.635 102.55C125.581 102.845 125.588 103.133 125.632 103.412C125.579 103.382 125.522 103.358 125.457 103.348C124.917 103.271 124.591 104.01 124.532 104.426C124.356 105.665 125.662 106.549 126.745 105.786Z" fill="#BBE9FB"/>
<path d="M69.162 59.6175C69.619 60.1827 70.5656 60.503 71.2633 60.1461C72.0141 59.7642 71.4836 58.5761 71.1536 58.0633C70.7051 57.3654 70.0977 49.2497 70.0603 49.2502C69.7948 49.1497 73.3821 37.1975 67.3536 40.5306C62.3822 43.2811 66.2405 56.0149 69.162 59.6175Z" fill="#0C3140"/>
<path d="M82.4474 45.2717L83.6142 57.5114C83.9295 60.8192 81.26 63.7819 77.6524 64.1258C74.045 64.4696 70.8646 62.0646 70.5493 58.7568L70.523 58.4812C70.523 58.4812 67.238 59.5311 66.888 55.8596C66.538 52.1882 68.6973 52.5014 68.6973 52.5014L68.1382 46.6357L82.4474 45.2717Z" fill="#BBE9FB"/>
<path d="M68.6971 52.5016L67.986 45.042L73.0657 44.5578C73.0692 44.5946 73.3166 47.2418 73.32 47.2776L74.5307 59.9778C74.7422 62.197 77.0614 63.7942 79.2822 63.5059C79.9721 63.4168 80.5924 63.1673 81.1196 62.8075C80.1535 63.5205 78.9687 64.0005 77.6524 64.1259C74.0447 64.4698 70.8646 62.0648 70.5493 58.757L70.523 58.4813C70.523 58.4813 67.2378 59.5312 66.8878 55.8598C66.5378 52.1883 68.6971 52.5016 68.6971 52.5016Z" fill="#90C5DA"/>
<path d="M68.6974 52.5015C68.4927 53.3566 70.0773 54.3967 70.7887 54.332C72.2452 54.197 72.3295 48.9082 72.7514 46.1961C74.3061 46.7011 81.9241 46.255 83.4886 45.7189C85.8182 44.9202 86.6403 39.9387 84.8763 38.4118C80.547 34.663 68.7866 36.6721 67.3536 40.5308C67.3496 40.5431 67.3516 40.5529 67.3486 40.5654C63.969 41.9447 65.0232 52.25 68.6974 52.5015Z" fill="#0C3140"/>
</g>
</g>
</g>
<defs>
<clipPath id="clip0_1_8044">
<rect width="416" height="234" fill="white" transform="translate(-31)"/>
</clipPath>
</defs>
</svg>
