<svg width="246" height="307" viewBox="0 0 246 307" fill="none" xmlns="http://www.w3.org/2000/svg">
<g clip-path="url(#clip0_1_7215)">
<mask id="mask0_1_7215" style="mask-type:luminance" maskUnits="userSpaceOnUse" x="0" y="0" width="246" height="307">
<path d="M245.189 0H0V306.486H245.189V0Z" fill="white"/>
</mask>
<g mask="url(#mask0_1_7215)">
<path d="M54.3147 151.043L224.597 196.67V233.759L54.3147 188.132V151.043Z" fill="url(#paint0_linear_1_7215)"/>
<path d="M200.954 190.369L193.373 192.401L188.737 191.159L196.318 189.127L200.954 190.369Z" fill="url(#paint1_linear_1_7215)"/>
<path d="M193.373 192.401L220.016 221.563L215.38 220.321L188.737 191.159L193.373 192.401Z" fill="url(#paint2_linear_1_7215)"/>
<path d="M200.954 190.369L220.016 211.233V221.563L193.373 192.401L200.954 190.369Z" fill="url(#paint3_linear_1_7215)"/>
<path d="M72.0309 155.569L64.4496 157.6L59.8137 156.359L67.395 154.327L72.0309 155.569Z" fill="url(#paint4_linear_1_7215)"/>
<path d="M64.4493 157.6L91.0925 186.762L86.4569 185.521L59.8137 156.358L64.4493 157.6Z" fill="url(#paint5_linear_1_7215)"/>
<path d="M72.0308 155.569L91.0925 176.433V186.762L64.4496 157.6L72.0308 155.569Z" fill="url(#paint6_linear_1_7215)"/>
<path d="M27.0828 158.115L197.365 203.742V207.661L27.0828 162.034V158.115Z" fill="url(#paint7_linear_1_7215)"/>
<path d="M197.365 203.742L224.586 196.448V200.367L197.365 207.661V203.742Z" fill="url(#paint8_linear_1_7215)"/>
<path d="M27.0828 158.115L54.304 150.821L224.586 196.448L197.365 203.742L27.0828 158.115Z" fill="url(#paint9_linear_1_7215)"/>
<path d="M197.945 278.85C197.945 277.867 199.345 276.884 202.144 276.135C207.742 274.635 216.818 274.635 222.416 276.135C225.216 276.885 226.615 277.869 226.615 278.852C226.615 279.834 225.215 280.817 222.416 281.567C216.818 283.067 207.742 283.067 202.144 281.567C199.344 280.817 197.945 279.833 197.945 278.85Z" fill="url(#paint10_linear_1_7215)"/>
<path d="M197.945 256.746C197.945 257.497 199.014 258.249 201.153 258.822C205.43 259.968 212.364 259.968 216.641 258.822C218.779 258.249 219.849 257.498 219.849 256.747V278.877C219.849 279.627 218.779 280.378 216.641 280.951C212.364 282.097 205.43 282.097 201.153 280.951C199.014 280.378 197.945 279.626 197.945 278.875V256.746Z" fill="url(#paint11_linear_1_7215)"/>
<path d="M197.945 256.746C197.945 255.996 199.015 255.245 201.153 254.672C205.43 253.526 212.364 253.526 216.641 254.672C218.78 255.245 219.849 255.996 219.849 256.748C219.849 257.498 218.779 258.249 216.641 258.822C212.364 259.968 205.43 259.968 201.153 258.822C199.014 258.249 197.945 257.498 197.945 256.746Z" fill="url(#paint12_linear_1_7215)"/>
<path d="M216.641 257.856C212.364 256.71 205.43 256.71 201.153 257.856C200.592 258.006 200.114 258.17 199.701 258.341C200.113 258.511 200.596 258.673 201.153 258.822C205.43 259.968 212.364 259.968 216.641 258.822C217.198 258.673 217.681 258.511 218.093 258.341C217.68 258.169 217.202 258.006 216.641 257.856Z" fill="url(#paint13_linear_1_7215)"/>
<path d="M208.872 259.706C208.872 259.706 209.673 243.306 214.226 235.958C219.734 227.07 231.493 232.135 231.081 240.379C230.669 248.623 230.12 254 231.904 255.314C231.904 255.314 224.649 250.057 221.484 244.202C218.318 238.348 218.547 232.373 223.213 231.935C223.213 231.935 218.641 230.068 214.796 236.476C210.951 242.883 209.856 259.706 209.856 259.706C209.856 259.706 209.721 259.746 208.872 259.706Z" fill="url(#paint14_linear_1_7215)"/>
<path d="M214.039 224.487C214.039 224.487 212.594 219.426 217.618 216.877C222.641 214.329 226.647 216.643 228.37 214.97C230.093 213.297 236.681 216.474 238.839 211.227C238.839 211.227 238.842 219.342 228.968 222.157C219.093 224.972 214.039 224.487 214.039 224.487Z" fill="url(#paint15_linear_1_7215)"/>
<path d="M208.85 259.661C208.85 259.661 207.766 233.352 213.237 224.226C218.707 215.101 236.274 222.638 238.839 211.227C238.839 211.227 239.093 218.159 237.447 220.942C235.802 223.725 233.639 222.323 232.54 225.159C231.44 227.994 218.591 233.563 214.039 224.487C214.039 224.487 211.498 228.278 210.048 237.235C208.597 246.192 209.408 259.715 209.408 259.715L208.85 259.661Z" fill="url(#paint16_linear_1_7215)"/>
<path d="M209.877 259.67C209.877 259.67 208.709 248.359 202.005 233.567C202.005 233.567 204.974 225.806 200.486 222.777C195.999 219.748 189.126 219.734 187.733 215.787C186.34 211.84 179.801 210.435 174.16 212.915C174.16 212.915 174.178 217.176 179.118 219.655C182.697 221.45 184.769 223.333 185.778 228.602C187.061 235.3 194.525 241.157 201.497 234.398C201.497 234.398 207.395 245.389 208.897 259.755L209.877 259.67Z" fill="url(#paint17_linear_1_7215)"/>
<path d="M174.159 212.916C174.159 212.916 174.177 217.176 179.118 219.655C182.697 221.451 184.769 223.333 185.778 228.602C187.061 235.3 194.525 241.157 201.497 234.398C201.497 234.398 192.042 218.08 174.159 212.916Z" fill="url(#paint18_linear_1_7215)"/>
<path d="M208.896 259.691C208.896 259.691 207.119 243.076 194.788 243.155C182.457 243.235 180.79 256.285 183.777 265.028C183.777 265.028 183.675 262.4 185.756 260.383C187.837 258.366 186.713 255.993 186.572 253.801C186.431 251.608 200.247 255.522 197.426 244.074C197.426 244.074 206.652 244.914 207.917 259.784L208.896 259.691Z" fill="url(#paint19_linear_1_7215)"/>
<path d="M63.3318 35.5073C63.8844 35.3593 64.4864 35.3587 65.1159 35.5272L225.616 78.5331C228.311 79.2552 230.496 82.8178 230.496 86.4901V181.168C230.496 183.982 229.213 186.043 227.4 186.529C226.848 186.677 226.246 186.678 225.616 186.509L65.1159 143.503C62.4207 142.781 60.2357 139.219 60.2357 135.546V40.8687C60.2357 38.0542 61.5193 35.9931 63.3318 35.5073Z" fill="url(#paint20_linear_1_7215)"/>
<path d="M122.66 57.0975C122.865 57.0426 123.087 57.0423 123.32 57.1049L182.656 73.0039C183.653 73.2708 184.46 74.5878 184.46 75.9455V169.377C184.46 170.417 183.986 171.179 183.316 171.359C183.111 171.414 182.889 171.414 182.656 171.351L123.32 155.452C122.323 155.185 121.516 153.868 121.516 152.511V59.0796C121.516 58.039 121.99 57.2771 122.66 57.0975Z" fill="url(#paint21_linear_1_7215)"/>
<path d="M130.987 119.556C131.081 119.531 131.184 119.531 131.291 119.56L176.234 131.603C176.696 131.727 177.07 132.337 177.07 132.966C177.07 133.449 176.85 133.801 176.538 133.885C176.444 133.91 176.341 133.91 176.234 133.881L131.291 121.838C130.829 121.714 130.455 121.105 130.455 120.475C130.455 119.993 130.676 119.64 130.987 119.556Z" fill="url(#paint22_linear_1_7215)"/>
<path d="M130.987 126.388C131.081 126.362 131.184 126.362 131.291 126.391L176.234 138.434C176.696 138.558 177.07 139.168 177.07 139.797C177.07 140.28 176.85 140.632 176.538 140.716C176.444 140.741 176.341 140.741 176.234 140.712L131.291 128.669C130.829 128.546 130.455 127.936 130.455 127.306C130.455 126.824 130.676 126.471 130.987 126.388Z" fill="url(#paint23_linear_1_7215)"/>
<path d="M130.987 133.219C131.081 133.194 131.184 133.194 131.291 133.223L157.833 140.335C158.294 140.459 158.669 141.069 158.669 141.698C158.669 142.18 158.448 142.533 158.137 142.617C158.043 142.642 157.94 142.642 157.833 142.613L131.291 135.501C130.829 135.377 130.455 134.767 130.455 134.138C130.455 133.655 130.676 133.302 130.987 133.219Z" fill="url(#paint24_linear_1_7215)"/>
<path d="M189.858 74.8141C189.977 74.7822 190.106 74.7819 190.242 74.8181L224.782 84.0733C225.362 84.2287 225.832 84.9952 225.832 85.7857V113.463C225.832 114.068 225.556 114.512 225.166 114.616C225.047 114.648 224.918 114.648 224.782 114.612L190.242 105.357C189.662 105.202 189.191 104.435 189.191 103.645V75.9677C189.191 75.3621 189.468 74.9186 189.858 74.8141Z" fill="url(#paint25_linear_1_7215)"/>
<path d="M193.352 80.2656C193.433 80.2441 193.52 80.2444 193.612 80.269L203.312 82.868C203.707 82.9737 204.027 83.4959 204.027 84.0341C204.027 84.4476 203.838 84.7492 203.571 84.8206C203.491 84.842 203.403 84.8417 203.312 84.8172L193.612 82.2182C193.217 82.1125 192.897 81.5902 192.897 81.052C192.897 80.6386 193.086 80.337 193.352 80.2656Z" fill="url(#paint26_linear_1_7215)"/>
<path d="M193.352 84.8881C193.432 84.8667 193.52 84.867 193.612 84.8915L198.331 86.1561C198.726 86.2618 199.047 86.7841 199.047 87.3223C199.047 87.7357 198.857 88.0373 198.591 88.1087C198.511 88.1302 198.423 88.1298 198.331 88.1053L193.612 86.8408C193.217 86.735 192.897 86.2128 192.897 85.6746C192.897 85.2611 193.086 84.9596 193.352 84.8881Z" fill="url(#paint27_linear_1_7215)"/>
<path d="M189.858 111.185C189.977 111.153 190.106 111.153 190.242 111.189L224.782 120.444C225.362 120.6 225.832 121.366 225.832 122.157V149.834C225.832 150.439 225.556 150.883 225.166 150.987C225.047 151.019 224.918 151.02 224.782 150.983L190.242 141.728C189.662 141.573 189.191 140.806 189.191 140.016V112.339C189.191 111.733 189.468 111.29 189.858 111.185Z" fill="url(#paint28_linear_1_7215)"/>
<path d="M69.5139 73.644L86.0697 78.0801V101.289L69.5139 96.8524V73.644Z" fill="url(#paint29_linear_1_7215)"/>
<path d="M69.2648 73.2451L86.0434 77.741C86.0434 77.741 86.9123 91.7646 78.6598 96.3744L61.5861 92.049C61.5861 92.049 70.5781 86.0161 69.2648 73.2451Z" fill="white"/>
<path d="M71.9818 80.729L82.4122 83.6186" stroke="url(#paint30_linear_1_7215)" stroke-width="3" stroke-linecap="round" stroke-linejoin="round"/>
<path d="M70.5339 84.564L80.9643 87.4535" stroke="url(#paint31_linear_1_7215)" stroke-width="3" stroke-linecap="round" stroke-linejoin="round"/>
<path d="M68.9445 88.0508L75.7491 90.0319" stroke="url(#paint32_linear_1_7215)" stroke-width="3" stroke-linecap="round" stroke-linejoin="round"/>
<path d="M172.165 95.7268C172.312 95.6872 172.472 95.6872 172.64 95.7323L174.916 96.3422C175.636 96.535 176.219 97.4863 176.219 98.467V137.52C176.219 138.272 175.876 138.822 175.391 138.952C175.244 138.991 175.084 138.991 174.916 138.946L172.64 138.336C171.92 138.144 171.337 137.192 171.337 136.211V97.159C171.337 96.4068 171.68 95.8567 172.165 95.7268Z" fill="url(#paint33_linear_1_7215)"/>
<path d="M162.586 86.5255C162.72 86.4896 162.866 86.4893 163.018 86.5301L165.536 87.2047C166.189 87.3797 166.718 88.243 166.718 89.1328V120.98C166.718 121.662 166.407 122.161 165.968 122.279C165.834 122.315 165.688 122.315 165.536 122.274L163.018 121.6C162.365 121.425 161.836 120.561 161.836 119.672V87.8244C161.836 87.1424 162.147 86.6432 162.586 86.5255Z" fill="url(#paint34_linear_1_7215)"/>
<path d="M152.92 94.88C153.025 94.8521 153.138 94.8518 153.257 94.8836L156.295 95.6974C156.804 95.8341 157.217 96.5077 157.217 97.2019V116.042C157.217 116.574 156.974 116.964 156.632 117.055C156.527 117.083 156.414 117.084 156.295 117.052L153.257 116.238C152.748 116.101 152.335 115.428 152.335 114.734V95.8935C152.335 95.3612 152.578 94.9719 152.92 94.88Z" fill="url(#paint35_linear_1_7215)"/>
<path d="M143.334 87.2874C143.45 87.2564 143.576 87.2564 143.708 87.2916L146.536 88.0493C147.103 88.2013 147.563 88.9513 147.563 89.7245V113.405C147.563 113.998 147.292 114.432 146.91 114.534C146.794 114.565 146.668 114.565 146.536 114.53L143.708 113.772C143.14 113.62 142.681 112.87 142.681 112.097V88.4165C142.681 87.8231 142.951 87.3897 143.334 87.2874Z" fill="url(#paint36_linear_1_7215)"/>
<path d="M133.392 94.2704C133.484 94.2459 133.584 94.2459 133.689 94.2741L136.939 95.1454C137.39 95.2662 137.755 95.8614 137.755 96.4753V110.946C137.755 111.417 137.54 111.761 137.236 111.842C137.144 111.867 137.044 111.867 136.939 111.839L133.689 110.967C133.238 110.847 132.873 110.252 132.873 109.638V95.1672C132.873 94.6958 133.088 94.3516 133.392 94.2704Z" fill="url(#paint37_linear_1_7215)"/>
<path d="M215.942 105.429C218.606 104.715 220.491 101.683 220.491 97.5467C220.491 92.147 217.278 86.9092 213.315 85.8472C212.388 85.5986 211.502 85.6014 210.688 85.8193C208.024 86.5331 206.139 89.5655 206.139 93.7015C206.139 99.1012 209.352 104.339 213.315 105.401C214.243 105.65 215.129 105.647 215.942 105.429Z" stroke="url(#paint38_linear_1_7215)" stroke-width="6" stroke-miterlimit="10"/>
<path d="M212.258 85.6694C212.603 85.6924 212.956 85.751 213.315 85.8472C217.278 86.9092 220.491 92.147 220.491 97.5467C220.491 99.8359 219.914 101.787 218.946 103.194" stroke="#29C5FD" stroke-width="6" stroke-miterlimit="10" stroke-linecap="round"/>
<path d="M204.848 121.141C208.59 120.138 212.816 123.778 214.288 129.271C215.76 134.763 213.919 140.029 210.177 141.031C206.435 142.034 202.209 138.394 200.737 132.902C199.265 127.409 201.106 122.144 204.848 121.141Z" fill="url(#paint39_linear_1_7215)"/>
<path d="M203.539 131.039L206.249 134.248L210.799 129.104" stroke="white" stroke-width="4.38448" stroke-linecap="round" stroke-linejoin="round"/>
<path d="M83.4012 59.144C84.794 59.144 85.9248 60.2749 85.9248 61.6677C85.9248 63.0604 84.794 64.1913 83.4012 64.1913C82.0084 64.1913 80.8776 63.0604 80.8776 61.6677C80.8776 60.2749 82.0084 59.144 83.4012 59.144Z" fill="url(#paint40_linear_1_7215)"/>
<path d="M95.6293 56.853L85.7136 49.5957H81.0887L71.1729 56.853C70.5744 57.256 70.2418 57.6952 70.2418 58.1556C70.2418 60.103 76.1334 61.6817 83.4011 61.6817C90.6688 61.6817 96.5604 60.103 96.5604 58.1556C96.5604 57.6952 96.2279 57.256 95.6293 56.853Z" fill="url(#paint41_linear_1_7215)"/>
<path d="M83.4011 49.7662C82.9898 49.7662 82.6564 49.4328 82.6564 49.0215V8.9557C82.6564 8.54439 82.9898 8.21094 83.4011 8.21094C83.8124 8.21094 84.1459 8.54439 84.1459 8.9557V49.0215C84.1459 49.4328 83.8124 49.7662 83.4011 49.7662Z" fill="url(#paint42_linear_1_7215)"/>
<path d="M207.761 59.144C209.154 59.144 210.285 60.2749 210.285 61.6677C210.285 63.0604 209.154 64.1913 207.761 64.1913C206.368 64.1913 205.238 63.0604 205.238 61.6677C205.238 60.2749 206.368 59.144 207.761 59.144Z" fill="url(#paint43_linear_1_7215)"/>
<path d="M219.989 56.853L210.074 49.5957H205.449L195.533 56.853C194.934 57.256 194.602 57.6952 194.602 58.1556C194.602 60.103 200.493 61.6817 207.761 61.6817C215.029 61.6817 220.92 60.103 220.92 58.1556C220.92 57.6952 220.588 57.256 219.989 56.853Z" fill="url(#paint44_linear_1_7215)"/>
<path d="M207.761 49.7662C207.35 49.7662 207.016 49.4328 207.016 49.0215V8.9557C207.016 8.54439 207.35 8.21094 207.761 8.21094C208.172 8.21094 208.506 8.54439 208.506 8.9557V49.0215C208.506 49.4328 208.172 49.7662 207.761 49.7662Z" fill="url(#paint45_linear_1_7215)"/>
<path d="M128.048 161.748C128.916 162.687 133.081 166.906 135.431 168.701C137.103 169.979 142.572 177.368 153.679 189.189C159.163 195.025 166.725 187.02 160.279 181.349C151.635 173.743 141.787 165.536 141.085 164.27C140.382 163.004 140.201 160.955 140.037 159.83C139.883 158.776 139.832 157.861 139.289 157.575C138.745 157.29 138.432 158.74 138.353 159.594C138.274 160.449 138.117 161.589 137.548 160.966C137.548 160.966 133.961 157.058 132.978 156.003C131.995 154.948 130.94 156.07 131.802 157.107C132.664 158.145 135.285 161.361 135.285 161.361C135.285 161.361 131.077 157.003 130.162 156.086C129.248 155.169 128.072 156.377 129.072 157.484C130.073 158.59 133.884 162.516 133.884 162.516C133.884 162.516 130.83 159.625 129.417 158.348C128.364 157.396 127.31 158.448 128.431 159.642C129.816 161.116 132.639 163.965 132.639 163.965C132.639 163.965 130.106 161.695 128.93 160.73C128.171 160.108 127.168 160.797 128.048 161.748Z" fill="url(#paint46_linear_1_7215)"/>
<path d="M155.257 174.635C155.257 174.635 154.233 177.437 152.248 183.402C150.037 190.049 160.424 195.252 163.352 186.715C166.465 177.638 166.705 176.878 166.705 176.878L155.257 174.635Z" fill="url(#paint47_linear_1_7215)"/>
<path d="M153.955 176.284C153.563 175.898 153.448 175.311 153.654 174.801C154.666 172.3 157.823 164.598 160.176 159.888C163.506 153.224 174.608 157.265 172.169 166.025C170.561 171.8 167.749 177.701 166.726 179.757C166.488 180.235 165.997 180.53 165.463 180.512C163.3 180.439 157.624 179.891 153.955 176.284Z" fill="url(#paint48_linear_1_7215)"/>
<path d="M116.027 140.858L138.843 146.972L141.375 155.184L118.56 149.07L116.027 140.858Z" fill="url(#paint49_linear_1_7215)"/>
<path d="M93.2111 146.972L116.027 140.858L138.843 146.972L116.027 153.085L93.2111 146.972Z" fill="url(#paint50_linear_1_7215)"/>
<path d="M138.843 146.972L116.027 140.858V153.085L138.843 146.972Z" fill="url(#paint51_linear_1_7215)"/>
<path d="M93.2111 146.972L116.027 153.085V176.491L93.2111 170.378V146.972Z" fill="url(#paint52_linear_1_7215)"/>
<path d="M93.2111 146.972L116.027 153.085L113.494 161.297L90.6786 155.183L93.2111 146.972Z" fill="url(#paint53_linear_1_7215)"/>
<path d="M116.027 153.085L138.843 146.972V170.378L116.027 176.491V153.085Z" fill="url(#paint54_linear_1_7215)"/>
<path d="M159.606 156.887C159.606 156.887 159.199 152.544 160.832 149.846C162.055 147.826 168.174 144.054 166.387 136.559C164.94 130.49 153.842 126.265 150.023 132.764C146.653 138.498 146.103 139.69 145.008 140.924C144.203 141.833 145.113 142.234 145.614 142.462C145.457 143.175 144.788 145.452 145.657 147.273C146.874 149.819 149.817 149.494 147.417 153.866L159.606 156.887Z" fill="url(#paint55_linear_1_7215)"/>
<path d="M151.662 134.106C151.662 134.106 147.69 132.446 148.951 128.975C150.429 124.908 156.054 124.539 162.594 129.041C166.708 131.873 167.898 134.828 166.749 137.875C166.749 137.875 168.474 140.904 165.489 146.287C163.284 150.263 159.681 152.487 154.583 150.156C150.303 148.199 151.176 144.362 151.176 144.362C151.176 144.362 154.707 144.595 155.138 141.63C155.537 138.884 152.241 138.378 151.404 141.072C151.404 141.072 151.707 140.338 150.406 138.042C149.74 136.866 150.311 134.837 151.662 134.106Z" fill="url(#paint56_linear_1_7215)"/>
<path d="M197.373 293.493H163.277L157.433 287.205H197.373V293.493Z" fill="url(#paint57_linear_1_7215)"/>
<path d="M171.955 296.391H137.859L132.015 290.788H171.955V296.391Z" fill="url(#paint58_linear_1_7215)"/>
<path d="M166.369 275.902C166.369 275.902 165.645 284.352 167.318 287.292C169.258 290.701 166.407 293.823 162.412 293.466C159.157 293.174 156.044 291.751 150.163 290.324C144.282 288.897 143.293 284.876 145.677 283.647C147.772 282.566 157.974 285.496 158.374 277.501L166.369 275.902Z" fill="url(#paint59_linear_1_7215)"/>
<path d="M171.906 198.83C171.906 198.83 172.285 202.748 170.926 213.381C169.608 223.692 166.856 230.003 167.178 232.259C167.501 234.516 167.942 248.588 167.408 263.219C166.978 275.02 166.595 279.003 166.595 279.003C164.047 280.629 160.774 280.575 158.28 278.867L158.098 278.742C158.098 278.742 152.947 239.597 152.797 236.088C152.646 232.579 152.129 199.984 152.129 199.984L171.906 198.83Z" fill="url(#paint60_linear_1_7215)"/>
<path d="M167.22 290.404C165.958 292.337 161.586 292.439 158.505 290.998C155.425 289.557 150.352 289.156 147.052 287.334C144.901 286.146 144.814 284.886 145.013 284.152C143.575 285.737 144.933 289.055 150.163 290.324C156.044 291.751 159.157 293.174 162.412 293.466C166.117 293.797 168.835 291.137 167.664 288.029C167.771 288.796 167.712 289.652 167.22 290.404Z" fill="url(#paint61_linear_1_7215)"/>
<path d="M142.295 282.547C142.295 282.547 141.764 287.06 142.479 290.858C143.286 295.148 141.553 296.522 139.485 296.562C133.121 296.682 124.546 295.651 119.769 294.467C116.82 293.736 117.527 289.505 122.24 289.084C131.746 288.235 133.741 282.082 133.741 282.082L142.295 282.547Z" fill="url(#paint62_linear_1_7215)"/>
<path d="M162.007 196.732L140.283 198.189C140.283 198.189 138.128 211.34 136.629 218.845C135.333 225.336 135.227 232.359 135.227 236.419C135.227 240.48 133.723 282.547 133.723 282.547C139.345 284.697 142.295 282.547 142.295 282.547C142.295 282.547 149.966 253.815 150.517 245.393C151.068 236.971 151.069 234.1 151.971 232.559C153.533 229.891 160.011 209.411 162.007 196.732Z" fill="url(#paint63_linear_1_7215)"/>
<path d="M142.643 293.541C141.34 296.572 123.359 294.019 121.149 293.471C120.125 293.217 117.906 292.503 118.16 291.583C117.713 292.809 118.263 294.094 119.769 294.468C124.546 295.652 133.121 296.683 139.485 296.562C141.039 296.533 142.403 295.749 142.643 293.541Z" fill="url(#paint64_linear_1_7215)"/>
<path d="M143.262 157.567C143.262 157.567 143.817 156.564 145.823 154.791C148.687 152.262 157.284 151.616 160.606 153.217C162.574 154.166 164.581 156.998 164.581 156.998L143.262 157.567Z" fill="url(#paint65_linear_1_7215)"/>
<path d="M164.749 155.492C157.01 153.31 150.43 154.312 145.433 156.174C138.742 158.667 134.888 162.703 134.888 162.703C134.888 162.703 139.833 171.322 140.984 176.123C142.022 180.453 139.425 199.191 139.116 202.595C139.057 202.793 139.036 202.986 139.062 203.172C139.227 204.346 141.063 205.285 144.532 205.712C151.468 206.565 162.307 205.044 168.741 202.315C171.958 200.95 173.464 199.542 173.3 198.368C173.286 198.271 173.256 198.175 173.22 198.081C172.891 196.892 171.625 192.227 171.067 188.846C169.291 178.094 170.885 175.29 171.823 166.475C172.544 159.704 169.734 156.897 164.749 155.492Z" fill="url(#paint66_linear_1_7215)"/>
<path d="M124.802 175.187C124.802 175.187 122.823 177.419 118.791 182.243C114.298 187.617 122.058 196.263 127.909 189.393C134.131 182.087 134.633 181.468 134.633 181.468L124.802 175.187Z" fill="url(#paint67_linear_1_7215)"/>
<path d="M124.052 176.6C123.8 176.111 123.875 175.517 124.23 175.097C125.975 173.04 130.96 165.985 134.67 162.249C139.92 156.963 148.768 162.982 143.709 170.537C140.373 175.518 135.251 181.31 133.636 182.943C133.26 183.322 132.701 183.448 132.2 183.264C130.169 182.517 126.406 181.174 124.052 176.6Z" fill="url(#paint68_linear_1_7215)"/>
<path d="M92.4968 163.465C93.3921 164.378 97.6786 168.473 100.08 170.199C101.789 171.428 107.471 178.654 118.92 190.145C124.572 195.818 131.896 187.596 125.288 182.115C116.424 174.765 106.341 166.849 105.602 165.605C104.863 164.36 104.622 162.316 104.425 161.197C104.24 160.148 104.163 159.235 103.611 158.965C103.059 158.695 102.789 160.154 102.735 161.011C102.681 161.868 102.558 163.011 101.971 162.406C101.971 162.406 98.2706 158.604 97.2571 157.578C96.2437 156.553 95.2215 157.704 96.1137 158.716C97.0059 159.728 99.7199 162.866 99.7199 162.866C99.7199 162.866 95.3857 158.633 94.4451 157.743C93.5045 156.854 92.3642 158.095 93.3965 159.172C94.4289 160.249 98.3535 164.062 98.3535 164.062C98.3535 164.062 95.2158 161.262 93.7657 160.026C92.6861 159.105 91.6625 160.188 92.8179 161.348C94.246 162.782 97.1511 165.547 97.1511 165.547C97.1511 165.547 94.5531 163.352 93.3489 162.422C92.572 161.821 91.5898 162.54 92.4968 163.465Z" fill="url(#paint69_linear_1_7215)"/>
<path d="M47.7202 272.303C47.7202 270.842 49.8013 269.382 53.9612 268.267C62.2826 266.037 75.7748 266.037 84.0962 268.267C88.2576 269.382 90.3372 270.844 90.3372 272.305C90.3372 273.766 88.2561 275.227 84.0962 276.342C75.7748 278.571 62.2826 278.571 53.9612 276.342C49.7997 275.227 47.7202 273.765 47.7202 272.303Z" fill="url(#paint70_linear_1_7215)"/>
<path d="M69.0287 243.745V275.807" stroke="url(#paint71_linear_1_7215)" stroke-width="10" stroke-linecap="round" stroke-linejoin="round"/>
<path d="M55.463 239.285L49.9376 271.347" stroke="url(#paint72_linear_1_7215)" stroke-width="10" stroke-linecap="round" stroke-linejoin="round"/>
<path d="M82.5945 239.285L88.1198 271.347" stroke="url(#paint73_linear_1_7215)" stroke-width="10" stroke-linecap="round" stroke-linejoin="round"/>
<path d="M47.285 239.284C47.285 240.775 49.4068 242.266 53.6535 243.404C62.145 245.68 75.9124 245.68 84.4039 243.404C88.6488 242.267 90.7724 240.776 90.7724 239.286V244.334C90.7724 245.825 88.6488 247.316 84.4039 248.453C75.9124 250.729 62.145 250.729 53.6535 248.453C49.4068 247.315 47.285 245.824 47.285 244.332V239.284Z" fill="url(#paint74_linear_1_7215)"/>
<path d="M47.285 239.284C47.285 237.793 49.4087 236.302 53.6535 235.165C62.145 232.89 75.9124 232.89 84.4039 235.165C88.6506 236.303 90.7724 237.794 90.7724 239.286C90.7724 240.776 88.6488 242.267 84.4039 243.405C75.9124 245.68 62.145 245.68 53.6535 243.405C49.4068 242.267 47.285 240.775 47.285 239.284Z" fill="url(#paint75_linear_1_7215)"/>
<path d="M30.1773 209.308C30.1773 209.308 25.4206 219.023 21.23 222.782C18.8043 224.958 19.7154 226.362 23.6697 229.142C27.6241 231.923 32.0797 235.192 33.7234 235.345C35.3671 235.498 35.2186 234.799 32.901 232.254C28.3282 227.231 30.5479 223.89 38.2227 213.243L30.1773 209.308Z" fill="url(#paint76_linear_1_7215)"/>
<path d="M47.4036 133.596C47.4036 133.596 41.6198 143.246 42.8659 156.575C44.3785 172.754 50.0358 176.818 46.2959 181.635C42.5561 186.451 34.0848 199.411 29.4872 210.188C29.4872 210.188 33.8231 210.599 37.1932 215.168C37.1932 215.168 56.5138 191.684 58.8087 187.833C61.1037 183.982 62.0497 179.194 61.5202 169.579C60.9907 159.965 60.7231 137.19 60.7231 137.19L47.4036 133.596Z" fill="url(#paint77_linear_1_7215)"/>
<path d="M18.3066 225.569C18.3066 225.569 19.9763 222.907 22.5842 221.479C22.5842 221.479 24.3076 221.49 26.4856 223.602C29.1248 226.16 30.3273 224.92 31.2315 224.159C32.1661 223.372 32.1611 227.821 32.1785 228.558C32.2112 229.955 33.1452 231.59 34.7169 233.536C36.2886 235.482 36.6256 236.585 35.9356 237.536C35.2455 238.488 31.8924 237.295 30.0788 236.029C28.2652 234.764 18.3066 225.569 18.3066 225.569Z" fill="url(#paint78_linear_1_7215)"/>
<path d="M20.8233 225.98C18.8056 224.292 17.0851 225.734 18.8875 227.526C20.6749 229.303 28.0985 234.635 28.0985 234.635C33.056 238.53 35.9994 238.17 34.4207 237.194C30.6733 234.876 20.8233 225.98 20.8233 225.98Z" fill="url(#paint79_linear_1_7215)"/>
<path d="M60.2511 100.601C60.2511 100.601 60.4863 96.6031 59.89 95.3305C59.2937 94.0579 54.4997 87.9746 55.9966 82.7038C57.4934 77.433 63.7406 75.8971 67.6725 77.8985C71.6044 79.9 72.5117 85.2619 72.2064 87.1402C71.9856 88.4993 72.9771 90.18 73.6548 91.6702C74.0794 92.6038 72.8539 92.3677 72.8602 92.8628C72.8831 94.6535 72.7068 96.6619 72.0189 97.2127C71.331 97.7635 69.8118 97.2733 69.8118 97.2733L70.146 100.875L60.2511 100.601Z" fill="url(#paint80_linear_1_7215)"/>
<path d="M53.7535 86.4326C53.7986 79.3046 57.9562 79.1652 57.9562 79.1652C57.9562 79.1652 60.7247 74.9367 67.0184 76.1115C70.9032 76.8366 73.2469 80.4752 72.7359 83.0415C72.2248 85.6078 69.7432 85.7356 69.4933 88.7838C69.2434 91.832 71.8511 91.5444 71.8537 93.7556C71.8537 93.7556 71.9064 92.7735 70.5261 92.6866C69.1458 92.5996 67.7629 91.4293 67.553 89.0302C67.553 89.0302 64.9212 88.2391 64.4572 90.6795C64.11 92.5047 65.8721 93.2823 66.9367 93.7741C67.9175 94.2272 67.8857 97.2207 65.4692 98.1908C59.8696 100.439 53.6966 95.426 53.7535 86.4326Z" fill="url(#paint81_linear_1_7215)"/>
<path d="M61.8599 218.332C61.8599 218.332 62.6799 229.466 62.0386 234.506C61.6273 237.739 62.7993 238.318 67.6327 238.393C72.466 238.468 77.9886 238.666 79.4338 237.868C80.8791 237.071 78.2248 235.715 74.8279 235.158C69.2986 234.252 70.3668 230.182 70.7257 217.062L61.8599 218.332Z" fill="url(#paint82_linear_1_7215)"/>
<path d="M61.851 222.043C61.851 222.043 59.6774 210.375 61.6823 194.834C62.6844 187.067 60.9651 183.819 57.6568 175.254C54.0941 166.031 52.4059 149.414 56.8607 136.975L74.0401 140.946C74.0401 140.946 76.6363 158.731 75.6072 170.806C74.4761 184.08 70.879 222.566 70.879 222.566C70.879 222.566 67.1866 224.192 61.851 222.043Z" fill="url(#paint83_linear_1_7215)"/>
<path d="M60.8713 238.186C60.8713 238.186 61.2253 235.167 62.1827 232.931C62.1827 232.931 64.3171 234.294 66.8214 233.578C69.7268 232.748 69.6976 229.62 70.5131 230.221C71.2297 230.75 70.4607 232.798 74.4003 234.209C80.5754 236.421 82.0195 237.136 81.614 238.828C81.1238 240.875 67.4005 240.887 64.1806 240.703C60.9607 240.519 60.7937 238.921 60.8713 238.186Z" fill="url(#paint84_linear_1_7215)"/>
<path d="M81.5552 237.767C81.5482 237.803 81.5415 237.839 81.5326 237.876C81.0425 239.923 68.039 239.776 64.8191 239.592C62.6197 239.467 61.1254 238.839 60.88 238.119C60.875 238.158 60.8716 238.186 60.8716 238.186C60.7939 238.921 60.9607 240.519 64.1806 240.703C67.4005 240.886 81.1241 240.875 81.6143 238.828C81.7095 238.431 81.7008 238.089 81.5552 237.767Z" fill="url(#paint85_linear_1_7215)"/>
<path d="M75.1707 145.729C74.143 147.611 51.5034 148.666 44.2729 139.736C44.2729 139.736 49.1629 129.989 48.4256 119.017C47.5538 106.041 49.0715 102.447 52.5666 101.01C56.0616 99.5724 59.2218 101.735 60.4382 97.3288L70.5256 99.8448C70.5256 99.8448 69.8185 101.65 72.7509 102.732C75.6833 103.814 81.4556 105.21 81.0147 110.34C80.4546 116.859 81.3861 120.129 80.2857 122.91C78.8152 126.627 76.5181 127.556 75.1231 135.999C74.2583 141.234 75.1707 145.729 75.1707 145.729Z" fill="url(#paint86_linear_1_7215)"/>
<path d="M58.554 88.6616C59.2901 90.5244 58.5737 92.5534 56.9537 93.1932C55.3338 93.8331 53.4241 92.8417 52.688 90.9789C51.9519 89.116 52.6683 87.087 54.2882 86.4472C55.9082 85.8074 57.8179 86.7988 58.554 88.6616Z" fill="white"/>
<path d="M54.9515 87.2036C52.1443 87.1019 45.4444 88.4133 46.8084 95.1833C48.1724 101.953 50.178 103.016 46.5954 106.067C43.0129 109.119 43.4472 114.11 49.0165 115.107C55.8762 116.336 62.1834 113.609 62.2502 105.053C62.2969 99.0546 58.7307 96.5689 57.2996 94.6437C55.8685 92.7185 57.2853 92.6125 57.7149 90.4488C58.1912 88.0494 55.9349 87.2393 54.9515 87.2036Z" fill="url(#paint87_linear_1_7215)"/>
<path d="M97.6581 88.8857L110.274 87.9328L115.943 104.099L103.327 105.052L97.6581 88.8857Z" fill="url(#paint88_linear_1_7215)"/>
<path d="M91.923 86.8795L104.708 85.9139C104.708 85.9139 108.739 95.4706 104.117 100.697L91.1675 101.854C91.1675 101.854 95.9575 95.4551 91.923 86.8795Z" fill="white"/>
<path d="M95.6439 91.4297L103.615 90.8952" stroke="url(#paint89_linear_1_7215)" stroke-width="3" stroke-linecap="round" stroke-linejoin="round"/>
<path d="M95.572 94.4546L103.543 93.9201" stroke="url(#paint90_linear_1_7215)" stroke-width="3" stroke-linecap="round" stroke-linejoin="round"/>
<path d="M95.3163 97.2715L100.54 96.9897" stroke="url(#paint91_linear_1_7215)" stroke-width="3" stroke-linecap="round" stroke-linejoin="round"/>
<path d="M94.4612 120.292C94.4612 120.292 102.482 103.209 103.524 99.9915C104.567 96.7744 104.155 95.7239 103.737 94.5877C103.318 93.4515 103.391 92.5141 102.906 91.4022C102.421 90.2904 103.634 90.1056 104.213 90.9933C104.792 91.8809 105.109 93.058 105.376 92.9597C105.644 92.8615 106.662 90.6273 106.662 90.6273C106.662 90.6273 105.64 88.9028 105.248 88.25C104.856 87.5972 105.85 86.7221 106.661 87.685C107.483 88.6606 108.313 89.906 108.452 90.3861C108.591 90.8661 108.374 91.5151 108.374 91.5151C108.374 91.5151 109.417 91.3591 109.638 92.6817C109.638 92.6817 110.569 93.022 110.416 94.2169C110.416 94.2169 111.455 94.7074 111.093 96.0551C110.73 97.4027 108.618 99.7362 108.051 101.842C107.485 103.948 104.53 117.987 103.347 122.61L94.4612 120.292Z" fill="url(#paint92_linear_1_7215)"/>
<path d="M98.295 110.889C98.295 110.889 93.4041 122.108 92.186 125.665C90.0422 131.926 99.6449 136.399 102.207 126.936C104.769 117.473 105.911 112.424 105.911 112.424C105.911 112.424 102.335 109.614 98.295 110.889Z" fill="url(#paint93_linear_1_7215)"/>
<path d="M99.3252 121.939C93.1791 116.645 82.2129 107.075 78.4905 105.103C74.7681 103.132 65.385 109.541 73.8737 117.37C82.3624 125.2 87.5805 127.748 92.1102 131.209C98.2792 135.923 105.973 127.666 99.3252 121.939Z" fill="url(#paint94_linear_1_7215)"/>
</g>
</g>
<defs>
<linearGradient id="paint0_linear_1_7215" x1="135.774" y1="207.185" x2="146.873" y2="159.197" gradientUnits="userSpaceOnUse">
<stop stop-color="white"/>
<stop offset="0.5" stop-color="#D7E9EF"/>
<stop offset="1" stop-color="#AED2E0"/>
</linearGradient>
<linearGradient id="paint1_linear_1_7215" x1="166.422" y1="165.196" x2="208.619" y2="203.328" gradientUnits="userSpaceOnUse">
<stop stop-color="white"/>
<stop offset="0.5" stop-color="#D7E9EF"/>
<stop offset="1" stop-color="#AED2E0"/>
</linearGradient>
<linearGradient id="paint2_linear_1_7215" x1="192.167" y1="221.283" x2="205.57" y2="204.496" gradientUnits="userSpaceOnUse">
<stop stop-color="white"/>
<stop offset="0.5" stop-color="#D7E9EF"/>
<stop offset="1" stop-color="#AED2E0"/>
</linearGradient>
<linearGradient id="paint3_linear_1_7215" x1="206.572" y1="240.592" x2="206.572" y2="184.779" gradientUnits="userSpaceOnUse">
<stop stop-color="white"/>
<stop offset="0.5" stop-color="#D7E9EF"/>
<stop offset="1" stop-color="#AED2E0"/>
</linearGradient>
<linearGradient id="paint4_linear_1_7215" x1="37.3915" y1="130.564" x2="79.5882" y2="168.695" gradientUnits="userSpaceOnUse">
<stop stop-color="white"/>
<stop offset="0.5" stop-color="#D7E9EF"/>
<stop offset="1" stop-color="#AED2E0"/>
</linearGradient>
<linearGradient id="paint5_linear_1_7215" x1="63.4428" y1="186.344" x2="76.8455" y2="169.557" gradientUnits="userSpaceOnUse">
<stop stop-color="white"/>
<stop offset="0.5" stop-color="#D7E9EF"/>
<stop offset="1" stop-color="#AED2E0"/>
</linearGradient>
<linearGradient id="paint6_linear_1_7215" x1="77.5412" y1="200.442" x2="77.5412" y2="157.229" gradientUnits="userSpaceOnUse">
<stop stop-color="white"/>
<stop offset="0.5" stop-color="#D7E9EF"/>
<stop offset="1" stop-color="#AED2E0"/>
</linearGradient>
<linearGradient id="paint7_linear_1_7215" x1="112.174" y1="125.047" x2="112.174" y2="189.328" gradientUnits="userSpaceOnUse">
<stop stop-color="white"/>
<stop offset="0.5" stop-color="#D7E9EF"/>
<stop offset="1" stop-color="#AED2E0"/>
</linearGradient>
<linearGradient id="paint8_linear_1_7215" x1="237.834" y1="201.975" x2="169.826" y2="201.975" gradientUnits="userSpaceOnUse">
<stop stop-color="white"/>
<stop offset="0.5" stop-color="#D7E9EF"/>
<stop offset="1" stop-color="#AED2E0"/>
</linearGradient>
<linearGradient id="paint9_linear_1_7215" x1="125.66" y1="110.029" x2="125.66" y2="247.591" gradientUnits="userSpaceOnUse">
<stop stop-color="white"/>
<stop offset="0.5" stop-color="#D7E9EF"/>
<stop offset="1" stop-color="#AED2E0"/>
</linearGradient>
<linearGradient id="paint10_linear_1_7215" x1="224.324" y1="291.534" x2="214.163" y2="280.893" gradientUnits="userSpaceOnUse">
<stop stop-color="white"/>
<stop offset="0.5" stop-color="#D7E9EF"/>
<stop offset="1" stop-color="#AED2E0"/>
</linearGradient>
<linearGradient id="paint11_linear_1_7215" x1="195.453" y1="269.467" x2="232.204" y2="268.308" gradientUnits="userSpaceOnUse">
<stop stop-color="white"/>
<stop offset="0.5" stop-color="#D7E9EF"/>
<stop offset="1" stop-color="#AED2E0"/>
</linearGradient>
<linearGradient id="paint12_linear_1_7215" x1="217.52" y1="256.779" x2="191.61" y2="256.779" gradientUnits="userSpaceOnUse">
<stop stop-color="#ABD0DE"/>
<stop offset="0.5" stop-color="#6C909D"/>
<stop offset="1" stop-color="#2E4F5C"/>
</linearGradient>
<linearGradient id="paint13_linear_1_7215" x1="208.877" y1="246.665" x2="208.877" y2="259.511" gradientUnits="userSpaceOnUse">
<stop stop-color="#ABD0DE"/>
<stop offset="0.5" stop-color="#6C909D"/>
<stop offset="1" stop-color="#2E4F5C"/>
</linearGradient>
<linearGradient id="paint14_linear_1_7215" x1="237.748" y1="265.605" x2="207.695" y2="235.964" gradientUnits="userSpaceOnUse">
<stop stop-color="white"/>
<stop offset="0.5" stop-color="#D7E9EF"/>
<stop offset="1" stop-color="#AED2E0"/>
</linearGradient>
<linearGradient id="paint15_linear_1_7215" x1="229.868" y1="198.515" x2="225.077" y2="222.595" gradientUnits="userSpaceOnUse">
<stop stop-color="white"/>
<stop offset="0.5" stop-color="#D7E9EF"/>
<stop offset="1" stop-color="#AED2E0"/>
</linearGradient>
<linearGradient id="paint16_linear_1_7215" x1="254.202" y1="179.789" x2="210.141" y2="245.019" gradientUnits="userSpaceOnUse">
<stop stop-color="white"/>
<stop offset="0.5" stop-color="#D7E9EF"/>
<stop offset="1" stop-color="#AED2E0"/>
</linearGradient>
<linearGradient id="paint17_linear_1_7215" x1="217.059" y1="213.47" x2="173.929" y2="252.898" gradientUnits="userSpaceOnUse">
<stop stop-color="white"/>
<stop offset="0.5" stop-color="#D7E9EF"/>
<stop offset="1" stop-color="#AED2E0"/>
</linearGradient>
<linearGradient id="paint18_linear_1_7215" x1="180.348" y1="239.183" x2="191.863" y2="215.315" gradientUnits="userSpaceOnUse">
<stop stop-color="white"/>
<stop offset="0.5" stop-color="#D7E9EF"/>
<stop offset="1" stop-color="#AED2E0"/>
</linearGradient>
<linearGradient id="paint19_linear_1_7215" x1="186.861" y1="239.838" x2="194.005" y2="256.11" gradientUnits="userSpaceOnUse">
<stop stop-color="white"/>
<stop offset="0.5" stop-color="#D7E9EF"/>
<stop offset="1" stop-color="#AED2E0"/>
</linearGradient>
<linearGradient id="paint20_linear_1_7215" x1="145.275" y1="9.80781" x2="145.275" y2="240.847" gradientUnits="userSpaceOnUse">
<stop stop-color="#78BFD9"/>
<stop offset="0.5" stop-color="#4688A0"/>
<stop offset="1" stop-color="#025979"/>
</linearGradient>
<linearGradient id="paint21_linear_1_7215" x1="129.337" y1="75.3957" x2="298.658" y2="357.597" gradientUnits="userSpaceOnUse">
<stop stop-color="white"/>
<stop offset="0.5" stop-color="#D7E9EF"/>
<stop offset="1" stop-color="#AED2E0"/>
</linearGradient>
<linearGradient id="paint22_linear_1_7215" x1="239.673" y1="126.886" x2="69.5232" y2="126.886" gradientUnits="userSpaceOnUse">
<stop stop-color="white"/>
<stop offset="0.5" stop-color="#D7E9EF"/>
<stop offset="1" stop-color="#AED2E0"/>
</linearGradient>
<linearGradient id="paint23_linear_1_7215" x1="239.673" y1="133.628" x2="69.5232" y2="133.628" gradientUnits="userSpaceOnUse">
<stop stop-color="white"/>
<stop offset="0.5" stop-color="#D7E9EF"/>
<stop offset="1" stop-color="#AED2E0"/>
</linearGradient>
<linearGradient id="paint24_linear_1_7215" x1="239.673" y1="137.919" x2="69.5232" y2="137.919" gradientUnits="userSpaceOnUse">
<stop stop-color="white"/>
<stop offset="0.5" stop-color="#D7E9EF"/>
<stop offset="1" stop-color="#AED2E0"/>
</linearGradient>
<linearGradient id="paint25_linear_1_7215" x1="178.375" y1="46.8929" x2="347.696" y2="329.094" gradientUnits="userSpaceOnUse">
<stop stop-color="white"/>
<stop offset="0.5" stop-color="#D7E9EF"/>
<stop offset="1" stop-color="#AED2E0"/>
</linearGradient>
<linearGradient id="paint26_linear_1_7215" x1="227.413" y1="82.7518" x2="181.361" y2="82.7518" gradientUnits="userSpaceOnUse">
<stop stop-color="white"/>
<stop offset="0.5" stop-color="#D7E9EF"/>
<stop offset="1" stop-color="#AED2E0"/>
</linearGradient>
<linearGradient id="paint27_linear_1_7215" x1="227.413" y1="86.7363" x2="181.36" y2="86.7363" gradientUnits="userSpaceOnUse">
<stop stop-color="white"/>
<stop offset="0.5" stop-color="#D7E9EF"/>
<stop offset="1" stop-color="#AED2E0"/>
</linearGradient>
<linearGradient id="paint28_linear_1_7215" x1="162.438" y1="56.3937" x2="331.758" y2="338.595" gradientUnits="userSpaceOnUse">
<stop stop-color="white"/>
<stop offset="0.5" stop-color="#D7E9EF"/>
<stop offset="1" stop-color="#AED2E0"/>
</linearGradient>
<linearGradient id="paint29_linear_1_7215" x1="77.5411" y1="40.4565" x2="77.5411" y2="155.052" gradientUnits="userSpaceOnUse">
<stop stop-color="#78BFD9"/>
<stop offset="0.5" stop-color="#4688A0"/>
<stop offset="1" stop-color="#025979"/>
</linearGradient>
<linearGradient id="paint30_linear_1_7215" x1="79.6866" y1="86.1229" x2="74.6743" y2="78.5462" gradientUnits="userSpaceOnUse">
<stop stop-color="#E9F3F6"/>
<stop offset="0.5" stop-color="#CCE2EB"/>
<stop offset="1" stop-color="#AED2E0"/>
</linearGradient>
<linearGradient id="paint31_linear_1_7215" x1="78.1541" y1="89.8009" x2="73.1421" y2="82.2242" gradientUnits="userSpaceOnUse">
<stop stop-color="#E9F3F6"/>
<stop offset="0.5" stop-color="#CCE2EB"/>
<stop offset="1" stop-color="#AED2E0"/>
</linearGradient>
<linearGradient id="paint32_linear_1_7215" x1="73.8633" y1="91.9462" x2="70.373" y2="86.6701" gradientUnits="userSpaceOnUse">
<stop stop-color="#E9F3F6"/>
<stop offset="0.5" stop-color="#CCE2EB"/>
<stop offset="1" stop-color="#AED2E0"/>
</linearGradient>
<linearGradient id="paint33_linear_1_7215" x1="173.54" y1="45.9163" x2="173.54" y2="138.028" gradientUnits="userSpaceOnUse">
<stop stop-color="white"/>
<stop offset="0.5" stop-color="#D7E9EF"/>
<stop offset="1" stop-color="#AED2E0"/>
</linearGradient>
<linearGradient id="paint34_linear_1_7215" x1="163.972" y1="70.297" x2="163.972" y2="126.539" gradientUnits="userSpaceOnUse">
<stop stop-color="#A3E7FF"/>
<stop offset="0.5" stop-color="#52D0FE"/>
<stop offset="1" stop-color="#01BAFE"/>
</linearGradient>
<linearGradient id="paint35_linear_1_7215" x1="154.711" y1="29.4684" x2="154.711" y2="121.581" gradientUnits="userSpaceOnUse">
<stop stop-color="white"/>
<stop offset="0.5" stop-color="#D7E9EF"/>
<stop offset="1" stop-color="#AED2E0"/>
</linearGradient>
<linearGradient id="paint36_linear_1_7215" x1="144.99" y1="29.7485" x2="144.99" y2="121.861" gradientUnits="userSpaceOnUse">
<stop stop-color="white"/>
<stop offset="0.5" stop-color="#D7E9EF"/>
<stop offset="1" stop-color="#AED2E0"/>
</linearGradient>
<linearGradient id="paint37_linear_1_7215" x1="135.116" y1="29.7752" x2="135.116" y2="121.888" gradientUnits="userSpaceOnUse">
<stop stop-color="white"/>
<stop offset="0.5" stop-color="#D7E9EF"/>
<stop offset="1" stop-color="#AED2E0"/>
</linearGradient>
<linearGradient id="paint38_linear_1_7215" x1="220.05" y1="106.909" x2="197.423" y2="81.1644" gradientUnits="userSpaceOnUse">
<stop stop-color="white"/>
<stop offset="0.5" stop-color="#D7E9EF"/>
<stop offset="1" stop-color="#AED2E0"/>
</linearGradient>
<linearGradient id="paint39_linear_1_7215" x1="207.49" y1="113.716" x2="207.49" y2="144.182" gradientUnits="userSpaceOnUse">
<stop stop-color="#A3E7FF"/>
<stop offset="0.5" stop-color="#52D0FE"/>
<stop offset="1" stop-color="#01BAFE"/>
</linearGradient>
<linearGradient id="paint40_linear_1_7215" x1="83.3782" y1="64.6246" x2="83.3782" y2="60.591" gradientUnits="userSpaceOnUse">
<stop stop-color="#A3E7FF"/>
<stop offset="0.5" stop-color="#52D0FE"/>
<stop offset="1" stop-color="#01BAFE"/>
</linearGradient>
<linearGradient id="paint41_linear_1_7215" x1="60.3917" y1="55.7368" x2="95.1359" y2="55.7368" gradientUnits="userSpaceOnUse">
<stop stop-color="#ABD0DE"/>
<stop offset="0.5" stop-color="#6C909D"/>
<stop offset="1" stop-color="#2E4F5C"/>
</linearGradient>
<linearGradient id="paint42_linear_1_7215" x1="82.1522" y1="11.6025" x2="84.2489" y2="48.5804" gradientUnits="userSpaceOnUse">
<stop stop-color="white"/>
<stop offset="0.5" stop-color="#D7E9EF"/>
<stop offset="1" stop-color="#AED2E0"/>
</linearGradient>
<linearGradient id="paint43_linear_1_7215" x1="207.505" y1="64.6246" x2="207.505" y2="60.2272" gradientUnits="userSpaceOnUse">
<stop stop-color="#A3E7FF"/>
<stop offset="0.5" stop-color="#52D0FE"/>
<stop offset="1" stop-color="#01BAFE"/>
</linearGradient>
<linearGradient id="paint44_linear_1_7215" x1="194.326" y1="55.7368" x2="230.549" y2="55.7368" gradientUnits="userSpaceOnUse">
<stop stop-color="#ABD0DE"/>
<stop offset="0.5" stop-color="#6C909D"/>
<stop offset="1" stop-color="#2E4F5C"/>
</linearGradient>
<linearGradient id="paint45_linear_1_7215" x1="206.586" y1="11.6025" x2="208.682" y2="48.5804" gradientUnits="userSpaceOnUse">
<stop stop-color="white"/>
<stop offset="0.5" stop-color="#D7E9EF"/>
<stop offset="1" stop-color="#AED2E0"/>
</linearGradient>
<linearGradient id="paint46_linear_1_7215" x1="128.056" y1="150.005" x2="182.476" y2="209.553" gradientUnits="userSpaceOnUse">
<stop stop-color="#BDEDFF"/>
<stop offset="0.5" stop-color="#8AE0FF"/>
<stop offset="1" stop-color="#5CD3FF"/>
</linearGradient>
<linearGradient id="paint47_linear_1_7215" x1="104.178" y1="164.722" x2="182.365" y2="184.58" gradientUnits="userSpaceOnUse">
<stop stop-color="#BDEDFF"/>
<stop offset="0.5" stop-color="#8AE0FF"/>
<stop offset="1" stop-color="#5CD3FF"/>
</linearGradient>
<linearGradient id="paint48_linear_1_7215" x1="174.507" y1="150.124" x2="127.802" y2="231.019" gradientUnits="userSpaceOnUse">
<stop stop-color="#E9F3F6"/>
<stop offset="0.5" stop-color="#CCE2EB"/>
<stop offset="1" stop-color="#AED2E0"/>
</linearGradient>
<linearGradient id="paint49_linear_1_7215" x1="128.446" y1="137.539" x2="128.686" y2="170.16" gradientUnits="userSpaceOnUse">
<stop stop-color="#ABD0DE"/>
<stop offset="0.5" stop-color="#6C909D"/>
<stop offset="1" stop-color="#2E4F5C"/>
</linearGradient>
<linearGradient id="paint50_linear_1_7215" x1="115.88" y1="129.571" x2="115.88" y2="162.383" gradientUnits="userSpaceOnUse">
<stop stop-color="#ABD0DE"/>
<stop offset="0.5" stop-color="#6C909D"/>
<stop offset="1" stop-color="#2E4F5C"/>
</linearGradient>
<linearGradient id="paint51_linear_1_7215" x1="127.22" y1="141.523" x2="127.22" y2="161.202" gradientUnits="userSpaceOnUse">
<stop stop-color="#ABD0DE"/>
<stop offset="0.5" stop-color="#6C909D"/>
<stop offset="1" stop-color="#2E4F5C"/>
</linearGradient>
<linearGradient id="paint52_linear_1_7215" x1="104.54" y1="148.879" x2="104.54" y2="205.486" gradientUnits="userSpaceOnUse">
<stop stop-color="#ABD0DE"/>
<stop offset="0.5" stop-color="#6C909D"/>
<stop offset="1" stop-color="#2E4F5C"/>
</linearGradient>
<linearGradient id="paint53_linear_1_7215" x1="103.314" y1="146.121" x2="103.314" y2="174.133" gradientUnits="userSpaceOnUse">
<stop stop-color="#ABD0DE"/>
<stop offset="0.5" stop-color="#6C909D"/>
<stop offset="1" stop-color="#2E4F5C"/>
</linearGradient>
<linearGradient id="paint54_linear_1_7215" x1="135.496" y1="142.749" x2="112.469" y2="195.998" gradientUnits="userSpaceOnUse">
<stop stop-color="#ABD0DE"/>
<stop offset="0.5" stop-color="#6C909D"/>
<stop offset="1" stop-color="#2E4F5C"/>
</linearGradient>
<linearGradient id="paint55_linear_1_7215" x1="151.647" y1="117.413" x2="142.876" y2="157.397" gradientUnits="userSpaceOnUse">
<stop stop-color="#BDEDFF"/>
<stop offset="0.5" stop-color="#8AE0FF"/>
<stop offset="1" stop-color="#5CD3FF"/>
</linearGradient>
<linearGradient id="paint56_linear_1_7215" x1="165.376" y1="92.7661" x2="155.121" y2="150.923" gradientUnits="userSpaceOnUse">
<stop stop-color="#ABD0DE"/>
<stop offset="0.5" stop-color="#6C909D"/>
<stop offset="1" stop-color="#2E4F5C"/>
</linearGradient>
<linearGradient id="paint57_linear_1_7215" x1="194.006" y1="290.243" x2="154.547" y2="290.243" gradientUnits="userSpaceOnUse">
<stop stop-color="white" stop-opacity="0"/>
<stop offset="0.5" stop-color="#D7E9EF" stop-opacity="0.5"/>
<stop offset="1" stop-color="#2D97BE"/>
</linearGradient>
<linearGradient id="paint58_linear_1_7215" x1="163.051" y1="293.308" x2="136.297" y2="293.308" gradientUnits="userSpaceOnUse">
<stop stop-color="white"/>
<stop offset="0.5" stop-color="#D7E9EF"/>
<stop offset="1" stop-color="#AED2E0"/>
</linearGradient>
<linearGradient id="paint59_linear_1_7215" x1="156.002" y1="291.776" x2="156.002" y2="271.392" gradientUnits="userSpaceOnUse">
<stop stop-color="white"/>
<stop offset="0.5" stop-color="#D7E9EF"/>
<stop offset="1" stop-color="#AED2E0"/>
</linearGradient>
<linearGradient id="paint60_linear_1_7215" x1="147.42" y1="313.843" x2="147.42" y2="216.71" gradientUnits="userSpaceOnUse">
<stop stop-color="#ABD0DE"/>
<stop offset="0.5" stop-color="#6C909D"/>
<stop offset="1" stop-color="#2E4F5C"/>
</linearGradient>
<linearGradient id="paint61_linear_1_7215" x1="137.192" y1="252.854" x2="140.281" y2="289.424" gradientUnits="userSpaceOnUse">
<stop stop-color="white"/>
<stop offset="0.5" stop-color="#D7E9EF"/>
<stop offset="1" stop-color="#AED2E0"/>
</linearGradient>
<linearGradient id="paint62_linear_1_7215" x1="130.257" y1="295.759" x2="130.257" y2="274.491" gradientUnits="userSpaceOnUse">
<stop stop-color="white"/>
<stop offset="0.5" stop-color="#D7E9EF"/>
<stop offset="1" stop-color="#AED2E0"/>
</linearGradient>
<linearGradient id="paint63_linear_1_7215" x1="133.322" y1="312.31" x2="133.322" y2="214.73" gradientUnits="userSpaceOnUse">
<stop stop-color="#ABD0DE"/>
<stop offset="0.5" stop-color="#6C909D"/>
<stop offset="1" stop-color="#2E4F5C"/>
</linearGradient>
<linearGradient id="paint64_linear_1_7215" x1="116.772" y1="281.048" x2="115.637" y2="293.532" gradientUnits="userSpaceOnUse">
<stop stop-color="white"/>
<stop offset="0.5" stop-color="#D7E9EF"/>
<stop offset="1" stop-color="#AED2E0"/>
</linearGradient>
<linearGradient id="paint65_linear_1_7215" x1="128.035" y1="24.5298" x2="128.76" y2="49.7475" gradientUnits="userSpaceOnUse">
<stop stop-color="#ABD0DE"/>
<stop offset="0.5" stop-color="#6C909D"/>
<stop offset="1" stop-color="#2E4F5C"/>
</linearGradient>
<linearGradient id="paint66_linear_1_7215" x1="153.856" y1="147.42" x2="153.856" y2="240.83" gradientUnits="userSpaceOnUse">
<stop stop-color="white"/>
<stop offset="0.5" stop-color="#D7E9EF"/>
<stop offset="1" stop-color="#AED2E0"/>
</linearGradient>
<linearGradient id="paint67_linear_1_7215" x1="83.0321" y1="152.855" x2="148.511" y2="199.972" gradientUnits="userSpaceOnUse">
<stop stop-color="#BDEDFF"/>
<stop offset="0.5" stop-color="#8AE0FF"/>
<stop offset="1" stop-color="#5CD3FF"/>
</linearGradient>
<linearGradient id="paint68_linear_1_7215" x1="147.595" y1="148.962" x2="100.89" y2="229.857" gradientUnits="userSpaceOnUse">
<stop stop-color="white"/>
<stop offset="0.5" stop-color="#D7E9EF"/>
<stop offset="1" stop-color="#AED2E0"/>
</linearGradient>
<linearGradient id="paint69_linear_1_7215" x1="86.8661" y1="149.56" x2="143.004" y2="207.492" gradientUnits="userSpaceOnUse">
<stop stop-color="#BDEDFF"/>
<stop offset="0.5" stop-color="#8AE0FF"/>
<stop offset="1" stop-color="#5CD3FF"/>
</linearGradient>
<linearGradient id="paint70_linear_1_7215" x1="68.9594" y1="279.822" x2="68.9594" y2="256.736" gradientUnits="userSpaceOnUse">
<stop stop-color="white"/>
<stop offset="0.5" stop-color="#D7E9EF"/>
<stop offset="1" stop-color="#AED2E0"/>
</linearGradient>
<linearGradient id="paint71_linear_1_7215" x1="-nan" y1="-nan" x2="-nan" y2="-nan" gradientUnits="userSpaceOnUse">
<stop stop-color="#617F89"/>
<stop offset="0.5" stop-color="#456773"/>
<stop offset="1" stop-color="#2E4F5C"/>
</linearGradient>
<linearGradient id="paint72_linear_1_7215" x1="52.4091" y1="272.773" x2="52.4091" y2="237.646" gradientUnits="userSpaceOnUse">
<stop stop-color="#617F89"/>
<stop offset="0.5" stop-color="#456773"/>
<stop offset="1" stop-color="#2E4F5C"/>
</linearGradient>
<linearGradient id="paint73_linear_1_7215" x1="212.396" y1="272.773" x2="212.396" y2="307.9" gradientUnits="userSpaceOnUse">
<stop stop-color="#617F89"/>
<stop offset="0.5" stop-color="#456773"/>
<stop offset="1" stop-color="#2E4F5C"/>
</linearGradient>
<linearGradient id="paint74_linear_1_7215" x1="29.7292" y1="244.576" x2="93.7934" y2="244.576" gradientUnits="userSpaceOnUse">
<stop stop-color="white"/>
<stop offset="0.5" stop-color="#D7E9EF"/>
<stop offset="1" stop-color="#AED2E0"/>
</linearGradient>
<linearGradient id="paint75_linear_1_7215" x1="68.9595" y1="244.883" x2="68.9595" y2="199.269" gradientUnits="userSpaceOnUse">
<stop stop-color="white"/>
<stop offset="0.5" stop-color="#D7E9EF"/>
<stop offset="1" stop-color="#AED2E0"/>
</linearGradient>
<linearGradient id="paint76_linear_1_7215" x1="19.8366" y1="233.508" x2="35.4982" y2="206.816" gradientUnits="userSpaceOnUse">
<stop stop-color="#BDEDFF"/>
<stop offset="0.5" stop-color="#8AE0FF"/>
<stop offset="1" stop-color="#5CD3FF"/>
</linearGradient>
<linearGradient id="paint77_linear_1_7215" x1="52.435" y1="295.085" x2="43.0749" y2="143.891" gradientUnits="userSpaceOnUse">
<stop stop-color="#ABD0DE"/>
<stop offset="0.5" stop-color="#6C909D"/>
<stop offset="1" stop-color="#2E4F5C"/>
</linearGradient>
<linearGradient id="paint78_linear_1_7215" x1="44.3043" y1="208.812" x2="24.977" y2="244.063" gradientUnits="userSpaceOnUse">
<stop stop-color="white"/>
<stop offset="0.5" stop-color="#D7E9EF"/>
<stop offset="1" stop-color="#AED2E0"/>
</linearGradient>
<linearGradient id="paint79_linear_1_7215" x1="37.1524" y1="241.983" x2="11.9366" y2="207.579" gradientUnits="userSpaceOnUse">
<stop stop-color="#ABD0DE"/>
<stop offset="0.5" stop-color="#6C909D"/>
<stop offset="1" stop-color="#2E4F5C"/>
</linearGradient>
<linearGradient id="paint80_linear_1_7215" x1="72.7174" y1="82.5232" x2="51.4045" y2="100.954" gradientUnits="userSpaceOnUse">
<stop stop-color="#BDEDFF"/>
<stop offset="0.5" stop-color="#8AE0FF"/>
<stop offset="1" stop-color="#5CD3FF"/>
</linearGradient>
<linearGradient id="paint81_linear_1_7215" x1="56.1078" y1="41.1181" x2="65.9604" y2="102.229" gradientUnits="userSpaceOnUse">
<stop stop-color="#ABD0DE"/>
<stop offset="0.5" stop-color="#6C909D"/>
<stop offset="1" stop-color="#2E4F5C"/>
</linearGradient>
<linearGradient id="paint82_linear_1_7215" x1="91.8981" y1="224.844" x2="48.072" y2="230.38" gradientUnits="userSpaceOnUse">
<stop stop-color="#BDEDFF"/>
<stop offset="0.5" stop-color="#8AE0FF"/>
<stop offset="1" stop-color="#5CD3FF"/>
</linearGradient>
<linearGradient id="paint83_linear_1_7215" x1="59.9096" y1="246.885" x2="65.7723" y2="145.791" gradientUnits="userSpaceOnUse">
<stop stop-color="#ABD0DE"/>
<stop offset="0.5" stop-color="#6C909D"/>
<stop offset="1" stop-color="#2E4F5C"/>
</linearGradient>
<linearGradient id="paint84_linear_1_7215" x1="70.9558" y1="241.693" x2="71.585" y2="230.844" gradientUnits="userSpaceOnUse">
<stop stop-color="white"/>
<stop offset="0.5" stop-color="#D7E9EF"/>
<stop offset="1" stop-color="#AED2E0"/>
</linearGradient>
<linearGradient id="paint85_linear_1_7215" x1="86.6859" y1="235.203" x2="40.7846" y2="244.189" gradientUnits="userSpaceOnUse">
<stop stop-color="#ABD0DE"/>
<stop offset="0.5" stop-color="#6C909D"/>
<stop offset="1" stop-color="#2E4F5C"/>
</linearGradient>
<linearGradient id="paint86_linear_1_7215" x1="110.562" y1="125.18" x2="22.3967" y2="120.067" gradientUnits="userSpaceOnUse">
<stop stop-color="#A3E7FF"/>
<stop offset="0.5" stop-color="#52D0FE"/>
<stop offset="1" stop-color="#01BAFE"/>
</linearGradient>
<linearGradient id="paint87_linear_1_7215" x1="51.3037" y1="41.7026" x2="53.0687" y2="103.578" gradientUnits="userSpaceOnUse">
<stop stop-color="#ABD0DE"/>
<stop offset="0.5" stop-color="#6C909D"/>
<stop offset="1" stop-color="#2E4F5C"/>
</linearGradient>
<linearGradient id="paint88_linear_1_7215" x1="90.2518" y1="49.8098" x2="118.238" y2="129.636" gradientUnits="userSpaceOnUse">
<stop stop-color="#78BFD9"/>
<stop offset="0.5" stop-color="#4688A0"/>
<stop offset="1" stop-color="#025979"/>
</linearGradient>
<linearGradient id="paint89_linear_1_7215" x1="95.5718" y1="92.7645" x2="103.705" y2="89.9127" gradientUnits="userSpaceOnUse">
<stop stop-color="#AED2E0"/>
<stop offset="0.5" stop-color="#CCE2EB"/>
<stop offset="1" stop-color="#E9F3F6"/>
</linearGradient>
<linearGradient id="paint90_linear_1_7215" x1="102.126" y1="96.6371" x2="96.5929" y2="92.4383" gradientUnits="userSpaceOnUse">
<stop stop-color="#E9F3F6"/>
<stop offset="0.5" stop-color="#CCE2EB"/>
<stop offset="1" stop-color="#AED2E0"/>
</linearGradient>
<linearGradient id="paint91_linear_1_7215" x1="99.6397" y1="98.8078" x2="95.7279" y2="95.8397" gradientUnits="userSpaceOnUse">
<stop stop-color="#E9F3F6"/>
<stop offset="0.5" stop-color="#CCE2EB"/>
<stop offset="1" stop-color="#AED2E0"/>
</linearGradient>
<linearGradient id="paint92_linear_1_7215" x1="115.074" y1="68.3081" x2="83.0623" y2="172.626" gradientUnits="userSpaceOnUse">
<stop stop-color="#BDEDFF"/>
<stop offset="0.5" stop-color="#8AE0FF"/>
<stop offset="1" stop-color="#5CD3FF"/>
</linearGradient>
<linearGradient id="paint93_linear_1_7215" x1="118.495" y1="114.607" x2="35.1566" y2="143.829" gradientUnits="userSpaceOnUse">
<stop stop-color="#A3E7FF"/>
<stop offset="0.5" stop-color="#52D0FE"/>
<stop offset="1" stop-color="#01BAFE"/>
</linearGradient>
<linearGradient id="paint94_linear_1_7215" x1="113.162" y1="105.161" x2="34.6488" y2="145.595" gradientUnits="userSpaceOnUse">
<stop stop-color="#A3E7FF"/>
<stop offset="0.5" stop-color="#52D0FE"/>
<stop offset="1" stop-color="#01BAFE"/>
</linearGradient>
<clipPath id="clip0_1_7215">
<rect width="245.189" height="306.486" fill="white"/>
</clipPath>
</defs>
</svg>
